<svg width="290" height="178" viewBox="0 0 290 178" fill="none" xmlns="http://www.w3.org/2000/svg">
<path d="M1.00384 138.132C0.524327 138.406 0.357731 139.017 0.631741 139.496L5.09699 147.31C5.371 147.79 5.98186 147.956 6.46137 147.682C6.94089 147.408 7.10749 146.797 6.83348 146.318L2.86437 139.372L9.81031 135.403C10.2898 135.129 10.4564 134.518 10.1824 134.039C9.9084 133.559 9.29755 133.392 8.81803 133.666L1.00384 138.132ZM129.622 79.9998L128.789 79.4458C115.473 99.4535 101.423 118.902 81.8654 130.961C62.3731 142.98 37.2915 147.725 1.7631 138.035L1.49998 139L1.23687 139.965C37.2085 149.775 62.8769 145.019 82.9151 132.664C102.888 120.348 117.149 100.546 130.454 80.5539L129.622 79.9998Z" fill="#FF6C02"/>
<path d="M136.882 72.723C136.769 72.4176 136.73 72.1614 136.765 71.9543C136.811 71.7427 137.006 71.5737 137.348 71.4473C137.384 71.4338 137.454 71.4151 137.556 71.3912C137.666 71.3505 137.733 71.3257 137.758 71.3167C137.983 71.6637 138.222 72.0474 138.474 72.4677C138.735 72.8713 139.009 73.2764 139.298 73.6832C139.588 74.09 139.887 74.4861 140.196 74.8716C140.517 75.2526 140.853 75.5796 141.204 75.8526C141.338 75.5393 141.395 75.2058 141.375 74.8521C141.356 74.4985 141.312 74.1538 141.243 73.8182C141.17 73.4704 141.098 73.1432 141.026 72.8365C140.962 72.5131 140.959 72.2228 141.017 71.9655C141.07 71.696 141.206 71.465 141.427 71.2725C141.659 71.0755 142.026 70.9401 142.526 70.8663C143.039 70.6767 143.484 70.6232 143.862 70.7058C144.235 70.7762 144.585 70.9173 144.914 71.1292C145.249 71.3243 145.582 71.5484 145.912 71.8014C146.249 72.0377 146.63 72.2232 147.054 72.3578C147.069 72.172 147.088 71.9427 147.112 71.67C147.132 71.3851 147.174 71.0851 147.238 70.7699C147.31 70.4381 147.39 70.11 147.478 69.7858C147.574 69.4449 147.688 69.1323 147.819 68.8479C147.945 68.5513 148.093 68.2953 148.263 68.0797C148.429 67.8519 148.616 67.6996 148.823 67.6229C149.324 67.4378 149.816 67.4363 150.3 67.6185C150.779 67.7884 151.235 68.0642 151.668 68.4457C152.108 68.8105 152.522 69.2544 152.91 69.7775C153.293 70.2883 153.632 70.7944 153.929 71.2957C154.225 71.797 154.475 72.2668 154.679 72.7052C154.89 73.1268 155.032 73.4353 155.104 73.6307C155.163 73.7895 155.171 73.9252 155.129 74.0378C155.088 74.1503 155.021 74.2514 154.929 74.3408C154.833 74.4181 154.72 74.4877 154.59 74.5495C154.472 74.6069 154.358 74.6559 154.248 74.6965C154.224 74.7055 154.187 74.7191 154.139 74.7371C154.085 74.7429 154.026 74.751 153.96 74.7614C153.907 74.7672 153.833 74.7737 153.738 74.7809L150.523 69.7432C150.51 69.7066 150.436 69.6575 150.302 69.5959C150.164 69.5221 150.066 69.482 150.008 69.4756C149.971 69.4891 149.938 69.4943 149.909 69.4911C149.885 69.5002 149.867 69.5069 149.854 69.5114C149.838 69.5037 149.823 69.5021 149.811 69.5067C149.555 69.6014 149.349 69.7955 149.193 70.0889C149.05 70.3778 148.94 70.7171 148.862 71.1069C148.784 71.4967 148.731 71.9185 148.705 72.3726C148.678 72.8266 148.67 73.2738 148.68 73.7143C148.686 74.1426 148.694 74.5419 148.706 74.9123C148.726 75.266 148.737 75.5396 148.739 75.7331C148.699 75.7756 148.61 75.8361 148.473 75.9147C148.331 75.9811 148.235 76.0233 148.186 76.0414C147.845 76.1678 147.539 76.1488 147.27 75.9844C146.997 75.8079 146.733 75.565 146.48 75.256C146.24 74.9424 146 74.5938 145.761 74.2101C145.529 73.8098 145.287 73.455 145.034 73.146C144.793 72.8324 144.526 72.598 144.233 72.4426C143.947 72.2706 143.621 72.2523 143.255 72.3877C143.12 72.4373 143.042 72.6191 143.019 72.9329C142.996 73.2467 143.013 73.6293 143.068 74.0807C143.12 74.5198 143.191 74.9934 143.281 75.5013C143.367 75.997 143.456 76.4638 143.549 76.9016C143.649 77.3227 143.739 77.6782 143.818 77.9682C143.897 78.2581 143.937 78.4031 143.937 78.4031C143.926 78.4487 143.893 78.5095 143.838 78.5855C143.778 78.6492 143.714 78.7213 143.647 78.8017C143.592 78.8777 143.526 78.9436 143.449 78.9997C143.385 79.0512 143.335 79.0837 143.298 79.0972C142.956 79.2236 142.57 79.1928 142.14 79.0048C141.705 78.8046 141.263 78.5099 140.813 78.1207C140.372 77.7147 139.931 77.2531 139.49 76.7359C139.061 76.2142 138.667 75.6934 138.308 75.1735C137.95 74.6536 137.642 74.1774 137.385 73.7449C137.14 73.3079 136.972 72.9672 136.882 72.723ZM152.402 64.9676C152.362 64.8577 152.321 64.7478 152.28 64.6379C152.247 64.5112 152.231 64.3923 152.232 64.281C152.24 64.1531 152.272 64.0511 152.327 63.9752C152.39 63.8825 152.501 63.8068 152.659 63.7482C152.672 63.7436 152.684 63.7391 152.696 63.7346C152.721 63.7256 152.745 63.7166 152.769 63.7075C152.811 63.7062 152.843 63.701 152.868 63.692C153.217 63.9238 153.57 64.2585 153.926 64.696C154.277 65.1214 154.636 65.5856 155.003 66.0888C155.365 66.5797 155.743 67.0783 156.139 67.5847C156.53 68.0788 156.955 68.4976 157.415 68.8412C157.875 69.1848 158.369 69.4119 158.895 69.5227C159.422 69.6334 159.996 69.5531 160.618 69.2817C160.899 69.1779 161.026 68.9575 160.998 68.6206C160.971 68.2837 160.869 67.877 160.693 67.4007C160.529 66.9199 160.323 66.3992 160.074 65.8387C159.838 65.2737 159.637 64.7302 159.472 64.2082C159.314 63.6695 159.237 63.1776 159.239 62.7326C159.253 62.2831 159.425 61.9212 159.754 61.647C160.03 61.9058 160.343 62.3592 160.694 63.007C161.052 63.6382 161.42 64.3905 161.798 65.264C162.172 66.1253 162.551 67.0751 162.935 68.1132C163.314 69.1392 163.669 70.1741 163.999 71.2181C164.325 72.2499 164.612 73.254 164.862 74.2306C165.112 75.2071 165.307 76.0722 165.447 76.8257C165.586 77.5792 165.645 78.1891 165.623 78.6553C165.618 79.1293 165.512 79.3695 165.306 79.3762C164.96 79.2267 164.641 78.9836 164.35 78.6469C164.071 78.3058 163.813 77.9083 163.576 77.4545C163.351 76.9963 163.145 76.4962 162.959 75.9543C162.777 75.4246 162.599 74.8865 162.425 74.3401C162.263 73.7892 162.105 73.2504 161.953 72.7239C161.812 72.1929 161.662 71.7137 161.505 71.2862C161.078 71.4853 160.602 71.5851 160.074 71.5857C159.559 71.5817 159.016 71.4838 158.446 71.2921C157.871 71.0882 157.287 70.8043 156.694 70.4402C156.114 70.0717 155.551 69.6202 155.007 69.0857C154.474 68.5467 153.985 67.9363 153.539 67.2545C153.088 66.5604 152.709 65.7982 152.402 64.9676ZM181.777 66.8134C181.345 66.4319 180.839 65.9456 180.26 65.3545C179.688 64.7468 179.095 64.1191 178.481 63.4715C177.862 62.8117 177.232 62.177 176.59 61.5674C175.961 60.9533 175.361 60.4391 174.792 60.0249C174.605 59.9692 174.378 59.9765 174.113 60.0468C173.847 60.1172 173.576 60.2104 173.3 60.3264C173.019 60.4302 172.736 60.5279 172.451 60.6195C172.173 60.6944 171.91 60.7152 171.662 60.682C171.426 60.6443 171.216 60.5275 171.032 60.3316C170.849 60.1356 170.706 59.8065 170.605 59.3443L173.683 58.2068C173.491 57.5003 173.344 56.7841 173.243 56.0582C173.141 55.3323 173.099 54.6189 173.118 53.9179C173.149 53.2125 173.244 52.5317 173.404 51.8756C173.565 51.2195 173.825 50.6097 174.186 50.046C174.547 49.4823 175.01 48.9709 175.576 48.5119C176.154 48.0483 176.859 47.663 177.689 47.3561C177.983 47.2478 178.303 47.2128 178.65 47.251C178.993 47.277 179.323 47.3632 179.641 47.5095C179.959 47.6558 180.239 47.8507 180.482 48.0941C180.737 48.3331 180.918 48.5991 181.026 48.8923C180.794 48.978 180.571 49.012 180.356 48.9942C180.137 48.9642 179.921 48.9258 179.71 48.8791C179.494 48.8202 179.27 48.7779 179.038 48.7525C178.802 48.7147 178.562 48.741 178.318 48.8313C177.585 49.1021 176.955 49.5014 176.428 50.0293C175.914 50.5526 175.509 51.1465 175.213 51.8111C174.929 52.4712 174.773 53.1745 174.743 53.9211C174.714 54.6677 174.832 55.4013 175.099 56.1219C175.117 56.1708 175.151 56.2624 175.2 56.3967C175.258 56.5144 175.313 56.6464 175.367 56.793C175.422 56.9396 175.473 57.08 175.523 57.2144C175.585 57.3442 175.625 57.4336 175.643 57.4824C176.149 57.462 176.697 57.3846 177.285 57.2502C177.874 57.1159 178.454 56.9571 179.025 56.7739C179.604 56.574 180.151 56.3648 180.667 56.1463C181.196 55.9232 181.661 55.7167 182.062 55.5266C182.112 55.5497 182.204 55.592 182.338 55.6536C182.472 55.7152 182.554 55.7682 182.584 55.8125C182.598 55.8492 182.613 55.8713 182.63 55.879C182.681 55.9433 182.707 55.9754 182.707 55.9754C182.802 56.2319 182.742 56.4831 182.527 56.7289C182.313 56.9748 182.012 57.2111 181.623 57.4378C181.231 57.6524 180.782 57.8666 180.278 58.0806C179.787 58.2901 179.307 58.4951 178.84 58.6955C178.38 58.8793 177.968 59.0594 177.603 59.236C177.245 59.3958 177.009 59.5456 176.894 59.6852C177.324 60.3594 177.867 60.9639 178.522 61.4989C179.19 62.0294 179.865 62.5577 180.545 63.0836C181.225 63.6096 181.859 64.1598 182.446 64.7341C183.033 65.3084 183.462 65.9619 183.733 66.6947C183.684 66.7128 183.568 66.7557 183.384 66.8234C183.218 66.8988 183.033 66.9604 182.828 67.0082C182.624 67.056 182.414 67.071 182.199 67.0532C182.001 67.0431 181.861 66.9632 181.777 66.8134ZM184.856 55.9308C184.829 55.8575 184.786 55.7415 184.727 55.5827C184.676 55.4072 184.617 55.2279 184.549 55.0447C184.494 54.857 184.435 54.6776 184.371 54.5066C184.32 54.3311 184.281 54.2067 184.254 54.1334C184.316 53.8884 184.429 53.6664 184.591 53.4676C184.766 53.2642 184.95 53.0852 185.142 52.9307C185.423 53.5767 185.786 54.2406 186.233 54.9224C186.679 55.6043 187.14 56.2877 187.615 56.9727C188.086 57.6455 188.53 58.3212 188.947 58.9999C189.377 59.674 189.709 60.3286 189.944 60.9637C190.147 61.5133 189.967 61.892 189.405 62.0996C189.063 62.226 188.725 62.1916 188.389 61.9964C188.053 61.8013 187.733 61.517 187.428 61.1437C187.131 60.7537 186.843 60.3119 186.563 59.8183C186.279 59.3125 186.024 58.8099 185.798 58.3105C185.584 57.8065 185.392 57.3431 185.222 56.9201C185.064 56.4926 184.942 56.1629 184.856 55.9308ZM182.574 48.9659C182.842 48.9779 183.096 49.0645 183.336 49.2256C183.576 49.3868 183.718 49.5635 183.761 49.7557C183.812 49.9312 183.723 50.103 183.493 50.2711C183.259 50.4269 182.805 50.5116 182.13 50.5252C182.008 50.1954 181.963 49.8858 181.995 49.5964C182.039 49.3025 182.232 49.0923 182.574 48.9659ZM188.106 53.793C188.065 53.683 188.03 53.5709 188.002 53.4564C187.969 53.3298 187.955 53.2169 187.96 53.1179C187.961 53.0066 187.986 52.907 188.037 52.8188C188.1 52.7261 188.205 52.6527 188.351 52.5986C188.473 52.5534 188.644 52.6015 188.863 52.7427C189.089 52.8673 189.336 53.0468 189.603 53.2812C189.866 53.5034 190.133 53.7585 190.406 54.0463C190.692 54.3296 190.943 54.5975 191.161 54.85C191.387 55.0858 191.575 55.2939 191.725 55.4745C191.875 55.655 191.959 55.7491 191.975 55.7568C191.976 55.2707 191.982 54.7411 191.992 54.1682C192.003 53.5952 192.069 53.0431 192.192 52.5118C192.323 51.9638 192.529 51.471 192.812 51.0334C193.107 50.5913 193.541 50.2642 194.115 50.0521C194.408 49.9438 194.701 49.8911 194.994 49.894C195.294 49.8802 195.576 49.9288 195.839 50.0398C196.11 50.134 196.351 50.2807 196.564 50.4798C196.776 50.679 196.941 50.9373 197.058 51.2549C197.157 51.5236 197.118 51.7535 196.938 51.9447C196.771 52.1313 196.553 52.2743 196.285 52.3736L196.102 52.4413L195.023 51.9447C194.998 51.9537 194.978 51.9543 194.961 51.9466C194.936 51.9557 194.912 51.9647 194.888 51.9737C194.871 51.966 194.85 51.9667 194.826 51.9757C194.398 52.1337 194.108 52.38 193.954 52.7145C193.807 53.0323 193.739 53.3909 193.747 53.7902C193.752 54.1773 193.808 54.5731 193.915 54.9774C194.031 55.3651 194.147 55.7177 194.265 56.0352C194.355 56.2795 194.472 56.5209 194.616 56.7593C194.755 56.9855 194.9 57.2095 195.051 57.4312C195.198 57.6406 195.343 57.8646 195.487 58.103C195.626 58.3293 195.745 58.5767 195.845 58.8454C196.034 59.3584 195.854 59.7164 195.305 59.9195C194.999 60.0324 194.623 59.9909 194.176 59.7953C193.724 59.5874 193.241 59.294 192.726 58.9151C192.224 58.5317 191.715 58.0949 191.201 57.6048C190.682 57.1024 190.207 56.6049 189.775 56.1121C189.343 55.6193 188.974 55.1657 188.668 54.7512C188.374 54.3322 188.187 54.0128 188.106 53.793ZM203.524 55.9035C203.669 55.6969 203.838 55.4402 204.03 55.1332C204.23 54.8096 204.425 54.4737 204.616 54.1256C204.806 53.7775 204.974 53.424 205.119 53.065C205.264 52.7061 205.359 52.3796 205.403 52.0857C205.454 51.7751 205.44 51.5098 205.358 51.29C205.277 51.0701 205.1 50.9276 204.826 50.8622C204.435 51.0067 204.014 51.183 203.563 51.3911C203.108 51.5871 202.649 51.7708 202.185 51.9423C201.716 52.1016 201.248 52.2259 200.782 52.3151C200.327 52.3998 199.893 52.4076 199.478 52.3386C199.064 52.2695 198.688 52.0963 198.349 51.8188C198.019 51.5246 197.749 51.0966 197.542 50.5348C197.298 49.8753 197.201 49.2378 197.251 48.6223C197.309 47.9902 197.471 47.3958 197.738 46.8393C197.999 46.2706 198.33 45.7388 198.731 45.2439C199.138 44.7322 199.564 44.2694 200.008 43.8555C200.357 43.8237 200.707 43.868 201.057 43.9885C201.407 44.1091 201.729 44.2676 202.024 44.4641C202.038 44.7644 201.943 45.0352 201.741 45.2765C201.551 45.5134 201.311 45.7477 201.022 45.9795C200.745 46.2068 200.452 46.4469 200.143 46.6999C199.834 46.953 199.571 47.2375 199.355 47.5534C199.146 47.8526 199.005 48.2032 198.932 48.6052C198.854 48.995 198.912 49.4525 199.106 49.9777C199.25 50.3685 199.454 50.6194 199.717 50.7304C199.98 50.8414 200.284 50.8748 200.629 50.8307C200.969 50.7745 201.338 50.6657 201.737 50.5046C202.131 50.3312 202.529 50.1495 202.93 49.9594C203.344 49.7647 203.753 49.593 204.156 49.444C204.554 49.2828 204.933 49.1986 205.291 49.1911C205.644 49.1715 205.956 49.2438 206.225 49.4082C206.506 49.568 206.73 49.8739 206.897 50.3258C206.969 50.5212 206.995 50.7964 206.973 51.1514C206.964 51.5019 206.915 51.8948 206.826 52.3303C206.744 52.749 206.62 53.1835 206.454 53.6338C206.299 54.0796 206.115 54.5016 205.901 54.8999C205.695 55.2814 205.467 55.6224 205.217 55.923C204.975 56.2068 204.72 56.3984 204.451 56.4977C204.195 56.5925 203.99 56.5641 203.837 56.4125C203.696 56.2563 203.591 56.0867 203.524 55.9035ZM205.527 45.6055C205.514 45.5689 205.509 45.5361 205.512 45.5072C205.503 45.4827 205.498 45.4499 205.496 45.4088C205.523 45.3297 205.567 45.2232 205.628 45.0894C205.69 44.9556 205.733 44.8841 205.757 44.8751L209.44 43.5143C209.39 43.3799 209.293 43.173 209.148 42.8934C209.003 42.6138 208.846 42.3037 208.679 41.963C208.524 41.6179 208.382 41.2537 208.254 40.8706C208.122 40.4752 208.042 40.1091 208.015 39.7722C207.995 39.4185 208.047 39.1079 208.17 38.8402C208.301 38.5559 208.55 38.346 208.916 38.2106C209.372 39.4441 209.823 40.4018 210.27 41.0837C210.716 41.7655 211.154 42.256 211.584 42.5553C212.026 42.85 212.453 42.9907 212.864 42.9774C213.276 42.9642 213.669 42.8815 214.043 42.7293C214.424 42.5605 214.781 42.3595 215.111 42.1264C215.441 41.8932 215.74 41.7065 216.007 41.566C216.287 41.421 216.53 41.3658 216.737 41.4003C216.94 41.4226 217.104 41.6048 217.231 41.9468C217.326 42.2032 217.332 42.409 217.251 42.5641C217.181 42.7146 216.993 42.8813 216.686 43.0643C216.593 43.1126 216.437 43.198 216.218 43.3204C216.008 43.426 215.766 43.543 215.494 43.6712C215.222 43.7995 214.935 43.9406 214.631 44.0946C214.322 44.2364 214.032 44.3714 213.76 44.4996C213.488 44.6278 213.238 44.741 213.011 44.8389C212.779 44.9247 212.608 44.9879 212.498 45.0285C212.52 45.0896 212.553 45.1956 212.595 45.3467C212.637 45.4978 212.667 45.5978 212.685 45.6466C212.883 46.184 213.163 46.6776 213.523 47.1274C213.879 47.5649 214.248 47.998 214.628 48.4265C215.021 48.8505 215.395 49.2813 215.751 49.7189C216.107 50.1565 216.385 50.6439 216.583 51.1813C216.619 51.279 216.645 51.3874 216.662 51.5063C216.686 51.6085 216.683 51.7137 216.653 51.8217C216.631 51.9131 216.572 51.9974 216.476 52.0746C216.396 52.1596 216.254 52.2054 216.048 52.212C215.539 52.2614 215.093 52.1275 214.712 51.8102C214.344 51.4884 214.003 51.073 213.69 50.564C213.372 50.0428 213.08 49.4775 212.813 48.8682C212.546 48.2588 212.271 47.7013 211.987 47.1955C211.71 46.6729 211.417 46.254 211.106 45.9385C210.79 45.6109 210.428 45.4743 210.017 45.5287L206.184 46.0293C206.135 46.0474 206.043 46.0256 205.91 45.964C205.771 45.8902 205.681 45.8333 205.638 45.7935C205.617 45.7736 205.6 45.7453 205.586 45.7087C205.565 45.6888 205.545 45.6544 205.527 45.6055ZM236.573 41.9409C236.226 42.43 235.929 42.8659 235.682 43.2488C235.442 43.6149 235.195 43.9422 234.941 44.2305C234.686 44.5189 234.392 44.7735 234.057 44.9944C233.734 45.2108 233.311 45.416 232.785 45.6101C231.65 46.0299 230.696 46.0421 229.925 45.6467C229.15 45.2392 228.541 44.4369 228.099 43.24C227.928 42.7759 227.81 42.2709 227.747 41.725C227.684 41.1791 227.679 40.619 227.73 40.0447C227.789 39.4537 227.903 38.8774 228.07 38.3158C228.233 37.7421 228.459 37.2075 228.747 36.712C229.036 36.2166 229.377 35.7854 229.769 35.4185C230.168 35.0348 230.631 34.7459 231.156 34.5519C232.067 34.3124 232.838 34.2772 233.47 34.4463C234.097 34.6033 234.64 34.9091 235.1 35.3639C235.555 35.8066 235.955 36.3457 236.301 36.9813C236.643 37.6047 236.969 38.2616 237.279 38.9519C237.602 39.6377 237.937 40.319 238.285 40.9958C238.632 41.6726 239.051 42.2606 239.54 42.7598C239.531 43.2215 239.482 43.5588 239.394 43.7718C239.323 43.9924 239.181 44.0793 238.97 44.0326C238.758 43.9859 238.457 43.7917 238.067 43.4499C237.689 43.1037 237.191 42.6007 236.573 41.9409ZM229.67 42.7012C229.927 43.3973 230.245 43.8629 230.623 44.0979C231.009 44.3161 231.538 44.3011 232.21 44.0529C232.711 43.8678 233.155 43.6063 233.544 43.2683C233.941 42.9136 234.253 42.5204 234.482 42.0887C234.707 41.6447 234.842 41.1645 234.887 40.6481C234.932 40.1317 234.856 39.6048 234.657 39.0674C234.576 38.8476 234.469 38.54 234.337 38.1446C234.2 37.7371 234.029 37.3492 233.823 36.9809C233.618 36.6126 233.378 36.3196 233.103 36.1019C232.824 35.872 232.513 35.8202 232.171 35.9466C231.536 36.1813 231.011 36.5628 230.595 37.0912C230.175 37.6073 229.862 38.188 229.656 38.8332C229.451 39.4784 229.351 40.1469 229.356 40.8389C229.358 41.5186 229.462 42.1393 229.67 42.7012ZM237.553 32.4793C237.422 32.1251 237.271 31.7922 237.1 31.4805C236.925 31.1565 236.802 30.8618 236.732 30.5963C236.657 30.3186 236.67 30.071 236.77 29.8536C236.882 29.6316 237.158 29.4394 237.598 29.2769C237.836 29.5081 238.122 29.8882 238.456 30.4171C238.803 30.9415 239.175 31.5536 239.572 32.2535C239.97 32.9534 240.386 33.7227 240.821 34.5615C241.251 35.388 241.672 36.2252 242.082 37.0729C242.505 37.9162 242.905 38.754 243.282 39.5864C243.666 40.4021 244.006 41.1512 244.3 41.8338C243.996 42.2515 243.679 42.3894 243.349 42.2476C243.019 42.1058 242.673 41.7895 242.311 41.2985C241.945 40.7954 241.572 40.1627 241.193 39.4004C240.81 38.6259 240.417 37.827 240.016 37.0036C239.622 36.1636 239.217 35.3486 238.8 34.5587C238.379 33.7566 237.963 33.0635 237.553 32.4793ZM247.707 39.6167C246.922 38.6574 246.183 37.7646 245.489 36.9384C244.803 36.0954 244.162 35.2632 243.567 34.442C242.98 33.6041 242.437 32.7358 241.938 31.8374C241.439 30.9389 240.989 29.9461 240.588 28.8591C240.556 28.7736 240.5 28.621 240.418 28.4011C240.345 28.1645 240.263 27.9241 240.173 27.6798C240.082 27.4356 239.997 27.2035 239.915 26.9837C239.842 26.7471 239.789 26.5861 239.758 26.5006C239.777 26.2157 239.883 25.9198 240.075 25.6128C240.279 25.3014 240.522 25.0938 240.803 24.99C241.137 25.8938 241.505 26.8541 241.909 27.871C242.308 28.8757 242.756 29.8624 243.253 30.8309C243.762 31.795 244.337 32.7137 244.979 33.587C245.629 34.4435 246.365 35.1778 247.188 35.7898C247.092 35.4921 246.985 35.164 246.866 34.8053C246.747 34.4466 246.647 34.0811 246.565 33.7088C246.495 33.3321 246.46 32.9562 246.461 32.5813C246.461 32.2064 246.53 31.8479 246.667 31.5056C246.817 31.1589 247.054 30.8423 247.378 30.5558C247.715 30.2648 248.178 30.0171 248.769 29.8126C249.294 29.6185 249.801 29.5425 250.288 29.5844C250.788 29.6219 251.241 29.7597 251.649 29.9978C252.064 30.2193 252.428 30.5289 252.741 30.9266C253.063 31.3076 253.316 31.7485 253.501 32.2492C253.749 32.921 253.828 33.6414 253.737 34.4106C253.647 35.1798 253.422 35.9224 253.062 36.6385C252.714 37.3501 252.263 37.9888 251.708 38.5546C251.149 39.1081 250.522 39.5136 249.826 39.7709C249.471 39.9017 249.107 39.9671 248.732 39.9668C248.353 39.9543 248.011 39.8376 247.707 39.6167ZM249.578 31.3252C249.383 31.5499 249.186 31.8034 248.985 32.0859C248.784 32.3684 248.639 32.748 248.552 33.2246C248.472 33.6844 248.474 34.2735 248.559 34.9917C248.644 35.7099 248.869 36.6192 249.234 37.7198C249.259 37.7108 249.322 37.6943 249.424 37.6704C249.539 37.642 249.614 37.621 249.651 37.6075C249.981 37.4856 250.315 37.2441 250.653 36.883C251.004 36.5174 251.318 36.1097 251.596 35.66C251.887 35.2057 252.111 34.7412 252.268 34.2664C252.421 33.7795 252.465 33.3538 252.4 32.9892C252.36 32.768 252.229 32.5457 252.008 32.3221C251.786 32.0985 251.527 31.903 251.229 31.7355C250.939 31.5512 250.64 31.4187 250.332 31.338C250.037 31.2528 249.786 31.2485 249.578 31.3252ZM253.847 29.7477C253.82 29.6745 253.772 29.5462 253.704 29.363C253.644 29.1631 253.576 28.9593 253.499 28.7517C253.423 28.544 253.353 28.3547 253.289 28.1837C253.234 27.996 253.193 27.8655 253.166 27.7922C253.197 27.6141 253.243 27.4375 253.303 27.2626C253.371 27.0709 253.457 26.928 253.561 26.834C253.673 26.7233 253.809 26.6592 253.969 26.6417C254.141 26.6196 254.345 26.6831 254.581 26.832L254.635 26.9786L254.723 27.2168C254.733 27.2823 254.763 27.4379 254.812 27.6835C254.857 27.9169 254.904 28.177 254.955 28.4637C255.005 28.7505 255.049 29.0189 255.086 29.269C255.13 29.5024 255.164 29.6496 255.186 29.7107C255.272 29.9428 255.405 30.2269 255.585 30.563C255.76 30.8869 255.96 31.2224 256.186 31.5694C256.423 31.9119 256.679 32.2477 256.953 32.5766C257.24 32.9011 257.537 33.1799 257.846 33.413C258.149 33.6339 258.453 33.7992 258.758 33.9088C259.074 34.014 259.391 34.0079 259.709 33.8905C260.099 33.7461 260.403 33.5159 260.619 33.1999C260.848 32.8795 261.011 32.5137 261.109 32.1027C261.207 31.6917 261.247 31.2538 261.228 30.7888C261.221 30.3194 261.183 29.8613 261.115 29.4144C261.043 28.9554 260.953 28.5236 260.845 28.1193C260.737 27.7149 260.629 27.3662 260.521 27.073C260.412 26.7799 260.286 26.5141 260.143 26.2757C260.007 26.0205 259.861 25.776 259.705 25.5421C259.549 25.3082 259.402 25.0781 259.263 24.8519C259.131 24.609 259.018 24.3592 258.923 24.1028C258.838 23.8707 258.856 23.6765 258.979 23.5201C259.114 23.3592 259.285 23.2404 259.492 23.1636C259.749 23.0689 259.986 23.0715 260.203 23.1716C260.416 23.2595 260.608 23.4037 260.78 23.6041C260.963 23.8001 261.123 24.0462 261.261 24.3425C261.406 24.6221 261.532 24.9085 261.641 25.2016C261.749 25.4947 261.847 25.7779 261.934 26.0511C262.016 26.3121 262.087 26.522 262.146 26.6807C262.299 27.096 262.442 27.5775 262.575 28.1253C262.708 28.673 262.799 29.2571 262.848 29.8776C262.905 30.4814 262.916 31.0949 262.883 31.718C262.862 32.3367 262.765 32.9206 262.593 33.47C262.429 34.0026 262.181 34.4761 261.848 34.8906C261.528 35.3005 261.105 35.6025 260.58 35.7966C260.03 35.9997 259.5 36.0498 258.99 35.9468C258.476 35.8315 257.993 35.6143 257.542 35.2952C257.098 34.9593 256.677 34.5527 256.279 34.0753C255.88 33.5979 255.524 33.1047 255.211 32.5957C254.911 32.0822 254.641 31.578 254.403 31.0831C254.172 30.5715 253.987 30.1264 253.847 29.7477ZM262.779 26.1969C262.666 25.8915 262.627 25.6353 262.661 25.4282C262.708 25.2166 262.903 25.0476 263.244 24.9212C263.281 24.9077 263.351 24.889 263.453 24.8651C263.563 24.8244 263.63 24.7996 263.654 24.7906C263.88 25.1376 264.119 25.5213 264.371 25.9416C264.631 26.3452 264.906 26.7503 265.195 27.1571C265.484 27.5639 265.783 27.96 266.092 28.3455C266.414 28.7265 266.75 29.0535 267.1 29.3265C267.235 29.0132 267.292 28.6797 267.272 28.326C267.252 27.9724 267.208 27.6277 267.14 27.2921C267.067 26.9443 266.995 26.6171 266.923 26.3104C266.859 25.987 266.856 25.6967 266.913 25.4394C266.966 25.1699 267.103 24.9389 267.324 24.7464C267.556 24.5494 267.923 24.414 268.423 24.3402C268.936 24.1506 269.381 24.0971 269.759 24.1797C270.132 24.2501 270.482 24.3912 270.81 24.6031C271.146 24.7982 271.479 25.0223 271.808 25.2753C272.146 25.5116 272.526 25.6971 272.951 25.8317C272.966 25.6459 272.985 25.4166 273.009 25.1439C273.029 24.859 273.071 24.559 273.135 24.2438C273.206 23.9119 273.286 23.5839 273.375 23.2597C273.471 22.9188 273.584 22.6062 273.715 22.3218C273.842 22.0252 273.99 21.7692 274.16 21.5536C274.326 21.3258 274.513 21.1735 274.72 21.0968C275.221 20.9117 275.713 20.9102 276.197 21.0924C276.676 21.2623 277.132 21.538 277.565 21.9196C278.005 22.2844 278.419 22.7283 278.806 23.2514C279.189 23.7622 279.529 24.2683 279.825 24.7696C280.122 25.2709 280.372 25.7407 280.575 26.1791C280.787 26.6007 280.929 26.9092 281.001 27.1046C281.059 27.2634 281.068 27.3991 281.026 27.5117C280.985 27.6242 280.918 27.7253 280.826 27.8147C280.73 27.892 280.616 27.9616 280.487 28.0234C280.369 28.0808 280.255 28.1298 280.145 28.1704C280.121 28.1794 280.084 28.1929 280.035 28.211C279.982 28.2168 279.922 28.2249 279.857 28.2353C279.804 28.2411 279.73 28.2476 279.635 28.2548L276.42 23.2171C276.406 23.1805 276.333 23.1314 276.199 23.0698C276.061 22.996 275.962 22.9559 275.905 22.9495C275.868 22.963 275.835 22.9682 275.806 22.965C275.782 22.9741 275.763 22.9808 275.751 22.9853C275.735 22.9776 275.72 22.976 275.708 22.9806C275.451 23.0753 275.245 23.2694 275.09 23.5628C274.947 23.8517 274.836 24.191 274.758 24.5808C274.68 24.9705 274.628 25.3924 274.601 25.8465C274.575 26.3005 274.567 26.7477 274.577 27.1882C274.582 27.6165 274.591 28.0158 274.603 28.3862C274.623 28.7399 274.634 29.0135 274.636 29.207C274.596 29.2495 274.507 29.31 274.37 29.3886C274.228 29.455 274.132 29.4972 274.083 29.5153C273.741 29.6417 273.436 29.6227 273.167 29.4583C272.893 29.2818 272.63 29.0389 272.377 28.7299C272.136 28.4163 271.896 28.0677 271.657 27.684C271.426 27.2837 271.184 26.9289 270.931 26.6199C270.69 26.3063 270.423 26.0719 270.13 25.9165C269.844 25.7445 269.518 25.7262 269.152 25.8616C269.017 25.9112 268.939 26.093 268.916 26.4068C268.893 26.7206 268.909 27.1032 268.965 27.5546C269.016 27.9937 269.087 28.4673 269.178 28.9752C269.264 29.4709 269.353 29.9377 269.445 30.3755C269.546 30.7966 269.635 31.1521 269.715 31.4421C269.794 31.732 269.834 31.877 269.834 31.877C269.823 31.9226 269.79 31.9834 269.735 32.0594C269.675 32.1231 269.611 32.1952 269.544 32.2756C269.489 32.3516 269.423 32.4175 269.346 32.4736C269.282 32.5251 269.232 32.5576 269.195 32.5711C268.853 32.6975 268.467 32.6667 268.036 32.4787C267.601 32.2785 267.159 31.9838 266.71 31.5946C266.269 31.1886 265.827 30.727 265.386 30.2098C264.958 29.6881 264.564 29.1673 264.205 28.6474C263.846 28.1275 263.539 27.6513 263.282 27.2188C263.037 26.7818 262.869 26.4411 262.779 26.1969ZM282.932 25.6828C283.091 25.6242 283.262 25.6166 283.445 25.6601C283.639 25.6992 283.782 25.7852 283.873 25.9182C283.972 26.0345 283.991 26.2007 283.932 26.4168C283.873 26.633 283.67 26.8888 283.321 27.1843C282.973 27.2573 282.705 27.2659 282.518 27.2102C282.339 27.1377 282.214 27.0449 282.145 26.9318C282.083 26.802 282.066 26.6624 282.094 26.5132C282.13 26.3473 282.187 26.2012 282.265 26.0751C282.351 25.9323 282.457 25.8238 282.582 25.7497C282.703 25.6635 282.82 25.6411 282.932 25.6828ZM277.063 14.026C277.28 13.5988 277.511 13.4368 277.758 13.5401C278.004 13.6434 278.258 13.9174 278.52 14.3621C278.793 14.8023 279.06 15.3561 279.321 16.0233C279.577 16.6783 279.833 17.3539 280.091 18.0501C280.36 18.7417 280.616 19.3967 280.859 20.0151C281.113 20.629 281.351 21.1033 281.572 21.4381C281.64 21.6213 281.686 21.7846 281.711 21.928C281.737 22.0714 281.734 22.1971 281.705 22.3051C281.675 22.4132 281.603 22.5165 281.486 22.615C281.365 22.7013 281.195 22.785 280.975 22.8663C280.939 22.8798 280.895 22.8751 280.845 22.852C280.795 22.8289 280.72 22.7386 280.62 22.5811C280.516 22.4115 280.377 22.1502 280.205 21.7973C280.029 21.4323 279.798 20.9206 279.513 20.2624C279.241 19.5997 278.899 18.7683 278.487 17.7681C278.088 16.7634 277.613 15.516 277.063 14.026Z" fill="#FF6C02"/>
</svg>
