<svg width="382" height="123" viewBox="0 0 382 123" fill="none" xmlns="http://www.w3.org/2000/svg">
<path d="M0.745972 75.8874C0.312023 75.5458 0.237179 74.9171 0.578803 74.4831L6.14589 67.4115C6.48751 66.9776 7.11623 66.9027 7.55018 67.2444C7.98413 67.586 8.05898 68.2147 7.71735 68.6487L2.76884 74.9345L9.05471 79.8831C9.48865 80.2247 9.5635 80.8534 9.22188 81.2874C8.88025 81.7213 8.25153 81.7961 7.81758 81.4545L0.745972 75.8874ZM139 48L139.776 48.6312C127.047 64.2716 114.044 73.5977 101.155 78.8169C88.2696 84.0349 75.5613 85.1227 63.4609 84.3779C51.3793 83.6342 39.8581 81.0581 29.396 78.9351C18.8788 76.8009 9.49472 75.1409 1.48274 76.0947L1.36454 75.1017L1.24633 74.1087C9.62948 73.1108 19.3286 74.8514 29.7937 76.975C40.314 79.1098 51.6741 81.6486 63.5838 82.3816C75.4748 83.1136 87.8678 82.0398 100.404 76.9631C112.938 71.8874 125.678 62.7853 138.224 47.3688L139 48Z" fill="#FF6C02"/>
<path d="M151.416 43.1525C151.393 42.9193 151.386 42.5993 151.398 42.1925C151.409 41.7856 151.443 41.3438 151.499 40.8669C151.567 40.3758 151.661 39.8756 151.779 39.3663C151.911 38.8557 152.074 38.3942 152.267 37.982C152.46 37.5568 152.693 37.2061 152.966 36.9298C153.238 36.6406 153.561 36.477 153.937 36.439C153.95 36.4377 153.964 36.4428 153.978 36.4545C153.991 36.4532 154.01 36.4512 154.036 36.4486C154.063 36.4589 154.096 36.4621 154.135 36.4582C154.175 36.4672 154.243 36.4866 154.337 36.5163C154.445 36.5446 154.54 36.5808 154.623 36.6248C154.718 36.6545 154.8 36.6919 154.87 36.7372C154.952 36.7682 155 36.796 155.016 36.8206C155.017 36.8336 155.026 36.8523 155.041 36.8769C155.044 36.9028 155.047 36.9288 155.049 36.9547C155.064 36.9663 155.071 36.9786 155.073 36.9916C155.118 37.445 155.028 37.9057 154.8 38.3736C154.573 38.8416 154.321 39.3252 154.044 39.8243C153.78 40.3221 153.538 40.8439 153.319 41.3896C153.099 41.9353 153.019 42.5061 153.08 43.102C153.161 43.9052 153.343 44.6066 153.626 45.2061C153.908 45.7927 154.257 46.3333 154.674 46.8277C155.102 47.3079 155.593 47.7621 156.146 48.1903C156.713 48.6173 157.321 49.0661 157.971 49.537C157.974 49.5629 157.984 49.6011 158.002 49.6516C158.019 49.6892 158.029 49.7209 158.031 49.7468C158.056 49.993 157.983 50.177 157.812 50.299C157.64 50.4081 157.444 50.4737 157.224 50.496C156.641 50.5549 156.097 50.4791 155.591 50.2685C155.097 50.0436 154.641 49.7364 154.222 49.3469C153.816 48.9561 153.443 48.5031 153.103 47.9878C152.774 47.4583 152.49 46.9112 152.25 46.3466C152.022 45.7806 151.835 45.2237 151.688 44.6758C151.553 44.1137 151.462 43.6059 151.416 43.1525ZM157.525 40.2771C157.513 40.1605 157.501 40.0439 157.49 39.9273C157.49 39.7964 157.504 39.6772 157.532 39.5696C157.572 39.4478 157.628 39.3571 157.701 39.2974C157.785 39.2234 157.911 39.1779 158.08 39.1609C158.093 39.1596 158.106 39.1583 158.118 39.157C158.144 39.1544 158.17 39.1517 158.196 39.1491C158.236 39.1581 158.269 39.1613 158.295 39.1587C158.576 39.4706 158.833 39.883 159.068 40.3958C159.302 40.8956 159.533 41.435 159.762 42.0139C159.989 42.5798 160.231 43.1574 160.487 43.7466C160.742 44.3229 161.049 44.8349 161.408 45.2828C161.767 45.7307 162.188 46.0742 162.67 46.3134C163.153 46.5525 163.729 46.6186 164.398 46.5116C164.696 46.4814 164.874 46.2998 164.932 45.9668C164.99 45.6338 164.993 45.2146 164.942 44.7094C164.904 44.2028 164.835 43.6471 164.734 43.0422C164.647 42.4359 164.589 41.8594 164.56 41.3127C164.542 40.7517 164.59 40.2561 164.704 39.8258C164.83 39.3942 165.087 39.0869 165.474 38.9037C165.677 39.2235 165.866 39.7409 166.043 40.4559C166.232 41.1566 166.4 41.9772 166.548 42.9177C166.694 43.8452 166.822 44.8595 166.934 45.9606C167.044 47.0488 167.128 48.1397 167.186 49.2331C167.243 50.3136 167.27 51.3578 167.268 52.3658C167.265 53.3738 167.237 54.2601 167.183 55.0245C167.13 55.789 167.034 56.3942 166.896 56.84C166.772 57.2975 166.609 57.5037 166.409 57.4586C166.11 57.227 165.863 56.9118 165.665 56.513C165.481 56.1128 165.331 55.6634 165.215 55.1647C165.112 54.6648 165.038 54.1291 164.993 53.5578C164.95 52.9994 164.912 52.4339 164.881 51.8613C164.862 51.2874 164.844 50.7264 164.828 50.1783C164.825 49.629 164.8 49.1276 164.754 48.6742C164.292 48.7602 163.805 48.7375 163.295 48.6059C162.797 48.473 162.296 48.2423 161.792 47.9138C161.286 47.5723 160.792 47.1512 160.309 46.6503C159.84 46.1481 159.408 45.5701 159.015 44.9163C158.635 44.2611 158.314 43.5476 158.053 42.7757C157.79 41.9909 157.614 41.158 157.525 40.2771ZM168.053 45.3763C167.971 44.5731 168.084 43.8093 168.39 43.0846C168.695 42.3471 169.127 41.7014 169.686 41.1475C170.257 40.5794 170.91 40.1142 171.645 39.7519C172.394 39.3882 173.163 39.1665 173.954 39.0865C174.394 39.042 174.797 39.1452 175.163 39.3961C175.541 39.6457 175.868 39.966 176.143 40.357C176.417 40.735 176.635 41.1448 176.798 41.5864C176.973 42.0267 177.078 42.4153 177.112 42.7521C177.185 43.4776 177.082 44.2013 176.801 44.9233C176.52 45.6323 176.127 46.2806 175.624 46.8681C175.119 47.4426 174.534 47.9272 173.867 48.3218C173.2 48.7164 172.517 48.9491 171.817 49.0199C171.195 49.0828 170.66 49.0322 170.212 48.8682C169.762 48.6912 169.39 48.4409 169.095 48.1173C168.8 47.7808 168.563 47.3794 168.385 46.9132C168.218 46.4327 168.108 45.9204 168.053 45.3763ZM169.724 45.4036C169.758 45.7404 169.814 46.0358 169.892 46.2896C169.982 46.5292 170.107 46.7325 170.268 46.8994C170.442 47.0651 170.657 47.1873 170.914 47.266C171.169 47.3318 171.478 47.3463 171.841 47.3096C172.32 47.2612 172.786 47.0831 173.239 46.7756C173.691 46.455 174.085 46.075 174.42 45.6354C174.766 45.1815 175.031 44.6966 175.215 44.1808C175.398 43.6649 175.466 43.1738 175.419 42.7074C175.398 42.5001 175.356 42.2754 175.292 42.0332C175.228 41.791 175.141 41.5708 175.029 41.3727C174.917 41.1746 174.77 41.0128 174.587 40.8874C174.404 40.7619 174.183 40.7123 173.924 40.7385C173.691 40.7621 173.42 40.868 173.112 41.0562C172.817 41.2431 172.507 41.4773 172.182 41.7588C171.87 42.039 171.562 42.3516 171.256 42.6966C170.964 43.0403 170.697 43.3813 170.457 43.7197C170.216 44.0582 170.026 44.3784 169.886 44.6805C169.76 44.9812 169.706 45.2222 169.724 45.4036ZM177.638 40.3825C177.63 40.3048 177.616 40.1687 177.597 39.9744C177.589 39.7658 177.573 39.5514 177.551 39.3312C177.529 39.111 177.508 38.9102 177.49 38.7288C177.483 38.5332 177.476 38.3965 177.468 38.3188C177.543 38.1541 177.632 37.9947 177.734 37.8404C177.848 37.6718 177.967 37.5551 178.091 37.4902C178.227 37.411 178.375 37.3829 178.534 37.4061C178.707 37.4279 178.888 37.5404 179.079 37.7436L179.094 37.8991L179.12 38.1517C179.114 38.2178 179.103 38.3759 179.089 38.6259C179.074 38.863 179.055 39.1267 179.032 39.417C179.009 39.7072 178.984 39.978 178.957 40.2294C178.942 40.4665 178.938 40.6175 178.944 40.6822C178.969 40.9284 179.026 41.2367 179.116 41.6071C179.205 41.9646 179.315 42.3396 179.446 42.732C179.59 43.1231 179.754 43.5123 179.937 43.8994C180.133 44.2853 180.351 44.6297 180.591 44.9326C180.83 45.2226 181.083 45.4587 181.35 45.6411C181.63 45.8222 181.938 45.8957 182.275 45.8616C182.69 45.8197 183.041 45.6729 183.33 45.4212C183.632 45.1682 183.881 44.855 184.079 44.4817C184.277 44.1083 184.425 43.6942 184.523 43.2393C184.634 42.7831 184.712 42.3302 184.758 41.8806C184.803 41.418 184.824 40.9774 184.821 40.559C184.818 40.1405 184.801 39.7758 184.769 39.4649C184.738 39.154 184.682 38.8651 184.603 38.5983C184.535 38.3172 184.455 38.0439 184.363 37.7784C184.271 37.5129 184.186 37.2533 184.108 36.9994C184.041 36.7313 183.994 36.4612 183.967 36.1892C183.942 35.943 184.008 35.7596 184.166 35.6389C184.337 35.517 184.533 35.4448 184.753 35.4225C185.025 35.395 185.254 35.457 185.439 35.6083C185.623 35.7468 185.773 35.9345 185.889 36.1714C186.017 36.4071 186.111 36.6855 186.17 37.0068C186.24 37.3138 186.291 37.6227 186.322 37.9336C186.354 38.2445 186.377 38.5432 186.393 38.8295C186.408 39.1028 186.423 39.3237 186.441 39.4921C186.485 39.9326 186.503 40.4346 186.495 40.9982C186.486 41.5618 186.428 42.1501 186.32 42.7631C186.223 43.3617 186.081 43.9585 185.892 44.5534C185.717 45.147 185.477 45.6882 185.173 46.177C184.881 46.6516 184.522 47.0478 184.096 47.3657C183.683 47.6823 183.198 47.8688 182.641 47.9251C182.058 47.9841 181.533 47.8998 181.065 47.6723C180.595 47.4319 180.182 47.1006 179.825 46.6787C179.48 46.2424 179.175 45.7433 178.908 45.1813C178.642 44.6193 178.421 44.0528 178.246 43.4816C178.083 42.9091 177.948 42.3534 177.842 41.8146C177.746 41.2615 177.678 40.7841 177.638 40.3825ZM201.117 45.6245C200.928 45.8268 200.699 45.7649 200.43 45.4387C200.175 45.1112 199.895 44.6095 199.591 43.9335C199.286 43.2446 198.967 42.4196 198.634 41.4586C198.314 40.4964 197.995 39.4751 197.676 38.3949C197.358 37.3147 197.044 36.221 196.736 35.1135C196.439 33.9919 196.169 32.9395 195.926 31.9564C195.907 31.775 195.882 31.5943 195.851 31.4143C195.832 31.2199 195.833 31.0431 195.856 30.8837C195.891 30.71 195.96 30.5525 196.064 30.4112C196.18 30.2685 196.365 30.1517 196.617 30.0608C196.642 30.0452 196.695 30.0529 196.777 30.0839C196.87 30.1006 196.965 30.1303 197.061 30.173C197.155 30.2027 197.237 30.2401 197.307 30.2854C197.39 30.3294 197.447 30.3695 197.477 30.4057C197.553 32.8453 198.07 35.1749 199.028 37.3945C199.063 37.3517 199.153 37.2117 199.299 36.9744C199.444 36.7242 199.631 36.437 199.86 36.1128C200.088 35.7757 200.346 35.4159 200.634 35.0333C200.936 34.6495 201.253 34.2902 201.585 33.9556C201.918 33.6209 202.256 33.3381 202.599 33.1071C202.941 32.8631 203.28 32.7241 203.617 32.69C203.811 32.6704 204.003 32.6967 204.194 32.7691C204.397 32.8401 204.512 33.0052 204.538 33.2643C204.541 33.2902 204.539 33.3297 204.531 33.3828C204.522 33.423 204.519 33.456 204.521 33.4819C204.332 33.6843 204.043 33.9949 203.654 34.4138C203.277 34.8314 202.879 35.297 202.46 35.8106C202.041 36.3241 201.643 36.8551 201.267 37.4036C200.89 37.9521 200.615 38.4642 200.44 38.9398C200.409 39.0215 200.404 39.0941 200.423 39.1575C200.441 39.208 200.461 39.2715 200.482 39.3479C200.629 39.3853 200.864 39.4401 201.185 39.5123C201.507 39.5845 201.863 39.6728 202.253 39.7774C202.641 39.8689 203.057 39.9708 203.501 40.083C203.943 40.1823 204.359 40.2841 204.749 40.3886C205.139 40.4931 205.489 40.5886 205.798 40.6751C206.12 40.7473 206.361 40.8014 206.522 40.8375C206.711 40.8969 206.865 40.9336 206.984 40.9478C207.103 40.9619 207.198 40.9916 207.268 41.0368C207.337 41.0691 207.388 41.1229 207.422 41.198C207.456 41.2731 207.48 41.3884 207.496 41.5438C207.534 41.9195 207.468 42.1748 207.299 42.3097C207.129 42.4447 206.876 42.5292 206.539 42.5633C205.535 42.5994 204.536 42.491 203.542 42.2382C202.547 41.9724 201.531 41.6367 200.495 41.2311C200.482 41.4812 200.523 41.7649 200.621 42.0822C200.731 42.3982 200.855 42.7129 200.991 43.0263C201.128 43.3396 201.257 43.6472 201.379 43.949C201.514 44.2494 201.6 44.522 201.638 44.7668C201.689 45.0104 201.683 45.2073 201.62 45.3577C201.556 45.508 201.389 45.597 201.117 45.6245ZM207.975 38.7078C207.941 38.371 208.001 38.1228 208.155 37.9633C208.307 37.7908 208.572 37.6855 208.947 37.6475L209.142 37.6279C209.201 37.8312 209.271 38.0663 209.35 38.3331C209.43 38.5999 209.536 38.8706 209.668 39.1451C209.801 39.4196 209.95 39.6727 210.118 39.9045C210.284 40.1232 210.478 40.2934 210.7 40.4149C210.667 39.9602 210.733 39.5151 210.898 39.0796C211.075 38.6298 211.303 38.2272 211.581 37.8719C211.871 37.5023 212.192 37.1884 212.546 36.9302C212.911 36.6577 213.277 36.4636 213.645 36.3479L214.073 36.3046C214.694 36.2417 215.24 36.3305 215.709 36.571C216.177 36.7985 216.577 37.1245 216.907 37.5491C217.25 37.9594 217.528 38.4417 217.741 38.996C217.954 39.5503 218.13 40.1215 218.268 40.7095C218.417 41.2833 218.527 41.8481 218.596 42.4038C218.677 42.9453 218.737 43.4103 218.776 43.799L217.358 43.9425C217.201 43.173 217.029 42.438 216.84 41.7373C216.773 41.4562 216.691 41.1635 216.594 40.8591C216.497 40.5418 216.396 40.251 216.29 39.9869C216.184 39.7097 216.073 39.4591 215.959 39.2351C215.843 38.9982 215.719 38.8014 215.585 38.6447C215.528 38.5982 215.45 38.5341 215.35 38.4526C215.263 38.3698 215.17 38.2876 215.07 38.2061C214.97 38.1246 214.878 38.0554 214.794 37.9985C214.709 37.9416 214.661 37.9138 214.648 37.9151C214.249 37.8507 213.92 37.9625 213.661 38.2505C213.401 38.5254 213.182 38.8878 213.005 39.3376C212.828 39.7874 212.696 40.2915 212.608 40.85C212.534 41.4072 212.477 41.943 212.437 42.4574C212.396 42.9589 212.376 43.3994 212.375 43.779C212.373 44.1457 212.369 44.3686 212.364 44.4476C212.064 44.7135 211.766 44.8156 211.472 44.7537C211.177 44.6789 210.884 44.4992 210.593 44.2145C210.315 43.9284 210.049 43.5627 209.795 43.1173C209.554 42.6706 209.322 42.1967 209.102 41.6955C208.879 41.1814 208.67 40.666 208.474 40.1493C208.291 39.6312 208.124 39.1507 207.975 38.7078ZM219.489 40.1737C219.408 39.3705 219.521 38.6066 219.827 37.882C220.132 37.1444 220.564 36.4987 221.123 35.9449C221.694 35.3767 222.347 34.9115 223.082 34.5492C223.831 34.1856 224.6 33.9638 225.39 33.8839C225.831 33.8393 226.234 33.9425 226.599 34.1934C226.978 34.4431 227.305 34.7634 227.58 35.1543C227.854 35.5323 228.072 35.9421 228.234 36.3838C228.41 36.8241 228.515 37.2127 228.549 37.5495C228.622 38.2749 228.519 38.9987 228.238 39.7206C227.957 40.4297 227.564 41.0779 227.061 41.6654C226.556 42.2399 225.97 42.7245 225.304 43.1192C224.637 43.5138 223.954 43.7465 223.254 43.8172C222.632 43.8801 222.097 43.8296 221.649 43.6655C221.199 43.4885 220.827 43.2382 220.532 42.9147C220.236 42.5782 220 42.1768 219.822 41.7106C219.655 41.2301 219.544 40.7178 219.489 40.1737ZM221.161 40.2009C221.195 40.5378 221.251 40.8331 221.329 41.0869C221.419 41.3265 221.544 41.5298 221.705 41.6968C221.878 41.8624 222.094 41.9846 222.35 42.0633C222.606 42.1291 222.915 42.1437 223.277 42.107C223.757 42.0585 224.223 41.8805 224.676 41.5729C225.128 41.2524 225.521 40.8723 225.856 40.4327C226.203 39.9788 226.468 39.494 226.652 38.9781C226.835 38.4622 226.903 37.9711 226.856 37.5048C226.835 37.2975 226.793 37.0727 226.729 36.8305C226.665 36.5883 226.577 36.3682 226.466 36.1701C226.354 35.972 226.207 35.8102 226.024 35.6847C225.841 35.5592 225.62 35.5096 225.361 35.5358C225.128 35.5594 224.857 35.6653 224.549 35.8535C224.254 36.0404 223.944 36.2746 223.619 36.5561C223.307 36.8364 222.998 37.1489 222.693 37.4939C222.401 37.8376 222.134 38.1787 221.893 38.5171C221.653 38.8555 221.463 39.1758 221.323 39.4778C221.197 39.7785 221.142 40.0196 221.161 40.2009ZM228.608 34.8344C228.585 34.6142 228.611 34.4088 228.683 34.2183C228.768 34.0264 228.934 33.9181 229.18 33.8932C229.193 33.8918 229.213 33.8964 229.24 33.9067C229.266 33.9041 229.292 33.9015 229.318 33.8988C229.344 33.8962 229.37 33.8936 229.396 33.891C229.437 33.9129 229.515 33.9705 229.629 34.0637C229.756 34.1555 229.835 34.226 229.866 34.2752C229.913 34.349 230.008 34.5096 230.151 34.7569C230.306 35.0029 230.486 35.2922 230.69 35.625C230.905 35.9435 231.124 36.2879 231.344 36.6582C231.577 37.0142 231.795 37.3586 231.998 37.6913C232.215 38.0227 232.395 38.3121 232.538 38.5594C232.692 38.7925 232.799 38.9452 232.859 39.0177C232.876 39.0553 232.942 39.1271 233.057 39.2332C233.184 39.325 233.275 39.3813 233.33 39.402C233.415 39.2101 233.491 38.9276 233.558 38.5544C233.625 38.1812 233.689 37.7756 233.749 37.3376C233.821 36.8853 233.892 36.4266 233.963 35.9614C234.033 35.4832 234.12 35.0556 234.226 34.6784C234.343 34.287 234.481 33.9655 234.639 33.714C234.795 33.4495 234.99 33.3055 235.223 33.2819C235.56 33.2478 235.891 33.3453 236.215 33.5742C236.552 33.8019 236.878 34.1092 237.192 34.4962C237.518 34.882 237.831 35.3215 238.13 35.8148C238.44 36.2938 238.731 36.7748 239.002 37.2578C239.285 37.7264 239.545 38.1647 239.783 38.5726C240.032 38.9662 240.266 39.2762 240.485 39.5027C240.636 39.4351 240.752 39.2925 240.835 39.0747C240.917 38.857 240.974 38.6354 241.003 38.4099C241.044 38.1701 241.068 37.9518 241.074 37.7549C241.079 37.545 241.085 37.407 241.091 37.3409C241.09 37.1971 241.087 36.9749 241.083 36.6743C241.077 36.3608 241.068 36.0084 241.054 35.6171C241.054 35.2245 241.046 34.8197 241.03 34.4025C241.014 33.9853 240.999 33.5811 240.986 33.1898C240.985 32.7973 240.976 32.4513 240.959 32.1521C240.954 31.8385 240.944 31.617 240.931 31.4875C240.957 31.4848 241.021 31.4718 241.123 31.4484C241.225 31.412 241.294 31.3918 241.333 31.3879C241.515 31.3695 241.679 31.3726 241.825 31.397C241.971 31.4215 242.095 31.5464 242.197 31.7717C242.206 31.8624 242.222 32.0243 242.246 32.2575C242.282 32.4894 242.314 32.7413 242.342 33.0134C242.381 33.2712 242.413 33.5231 242.438 33.7693C242.474 34.0011 242.497 34.1624 242.507 34.2531C242.527 34.4604 242.56 34.7843 242.605 35.2247C242.661 35.6509 242.703 36.1309 242.731 36.6647C242.772 37.1971 242.788 37.7451 242.779 38.3087C242.77 38.8594 242.717 39.3751 242.622 39.8559C242.538 40.3224 242.395 40.7164 242.192 41.038C241.987 41.3466 241.71 41.5186 241.36 41.5539C240.959 41.5946 240.573 41.5354 240.204 41.3765C239.834 41.2175 239.478 40.9918 239.134 40.6994C238.803 40.4057 238.482 40.0783 238.171 39.7171C237.858 39.3431 237.565 38.967 237.291 38.589C237.029 38.1967 236.783 37.829 236.552 37.486C236.332 37.1286 236.138 36.8276 235.97 36.5829C235.889 36.8266 235.822 37.1279 235.766 37.4869C235.724 37.8445 235.672 38.2358 235.61 38.6609C235.547 39.073 235.472 39.4928 235.384 39.9205C235.296 40.3352 235.184 40.7195 235.05 41.0733C234.927 41.4129 234.766 41.6975 234.567 41.927C234.38 42.1553 234.151 42.2831 233.879 42.3107C233.75 42.3238 233.634 42.342 233.531 42.3655C233.428 42.376 233.33 42.3793 233.238 42.3755C233.144 42.3588 233.056 42.322 232.971 42.2651C232.887 42.2081 232.805 42.1117 232.726 41.9758L228.686 35.2191C228.685 35.2062 228.673 35.155 228.651 35.0656C228.627 34.9633 228.613 34.8862 228.608 34.8344ZM252.082 30.713C252.07 30.5964 252.058 30.4798 252.046 30.3632C252.046 30.2323 252.06 30.1131 252.089 30.0055C252.129 29.8837 252.185 29.793 252.257 29.7333C252.342 29.6593 252.468 29.6138 252.636 29.5968C252.649 29.5955 252.662 29.5942 252.675 29.5929C252.701 29.5903 252.727 29.5876 252.753 29.585C252.793 29.594 252.826 29.5972 252.852 29.5946C253.132 29.9065 253.39 30.3189 253.625 30.8317C253.859 31.3316 254.09 31.8709 254.319 32.4498C254.546 33.0157 254.788 33.5933 255.044 34.1825C255.298 34.7588 255.605 35.2709 255.965 35.7187C256.324 36.1666 256.745 36.5101 257.227 36.7493C257.709 36.9884 258.285 37.0545 258.955 36.9475C259.253 36.9173 259.431 36.7357 259.489 36.4027C259.547 36.0697 259.55 35.6505 259.499 35.1453C259.461 34.6387 259.392 34.083 259.291 33.4781C259.204 32.8718 259.145 32.2953 259.116 31.7486C259.099 31.1876 259.147 30.692 259.26 30.2617C259.387 29.8301 259.644 29.5228 260.031 29.3397C260.233 29.6594 260.423 30.1768 260.6 30.8918C260.789 31.5925 260.957 32.4131 261.104 33.3536C261.25 34.2811 261.379 35.2954 261.49 36.3965C261.601 37.4847 261.685 38.5756 261.743 39.669C261.8 40.7495 261.827 41.7937 261.824 42.8017C261.821 43.8097 261.793 44.696 261.74 45.4604C261.686 46.2249 261.59 46.8301 261.452 47.2759C261.328 47.7334 261.166 47.9396 260.965 47.8945C260.667 47.6629 260.419 47.3477 260.222 46.9489C260.037 46.5487 259.887 46.0993 259.771 45.6007C259.668 45.1007 259.595 44.565 259.55 43.9937C259.506 43.4353 259.469 42.8698 259.437 42.2972C259.418 41.7233 259.401 41.1623 259.385 40.6142C259.381 40.0649 259.357 39.5635 259.311 39.1101C258.849 39.1961 258.362 39.1734 257.851 39.0418C257.354 38.9089 256.853 38.6782 256.348 38.3497C255.843 38.0082 255.349 37.5871 254.866 37.0862C254.397 36.584 253.965 36.006 253.572 35.3522C253.191 34.697 252.871 33.9835 252.609 33.2116C252.347 32.4268 252.171 31.5939 252.082 30.713ZM262.609 35.8122C262.528 35.009 262.64 34.2452 262.947 33.5206C263.252 32.783 263.684 32.1373 264.243 31.5834C264.813 31.0153 265.467 30.5501 266.202 30.1878C266.951 29.8241 267.72 29.6024 268.51 29.5224C268.951 29.4779 269.354 29.5811 269.719 29.832C270.098 30.0816 270.425 30.4019 270.7 30.7929C270.974 31.1709 271.192 31.5807 271.354 32.0223C271.53 32.4626 271.634 32.8512 271.668 33.188C271.742 33.9135 271.638 34.6372 271.358 35.3592C271.076 36.0682 270.684 36.7165 270.181 37.304C269.676 37.8785 269.09 38.3631 268.423 38.7577C267.757 39.1523 267.073 39.385 266.374 39.4558C265.752 39.5187 265.217 39.4681 264.768 39.3041C264.319 39.1271 263.947 38.8768 263.652 38.5532C263.356 38.2167 263.119 37.8153 262.941 37.3491C262.775 36.8686 262.664 36.3563 262.609 35.8122ZM264.281 35.8395C264.315 36.1763 264.371 36.4717 264.449 36.7255C264.538 36.9651 264.664 37.1684 264.825 37.3353C264.998 37.501 265.214 37.6232 265.47 37.7019C265.725 37.7677 266.034 37.7822 266.397 37.7455C266.877 37.6971 267.343 37.519 267.796 37.2115C268.248 36.8909 268.641 36.5109 268.976 36.0713C269.323 35.6174 269.588 35.1325 269.771 34.6167C269.955 34.1008 270.023 33.6097 269.976 33.1433C269.955 32.936 269.912 32.7113 269.849 32.4691C269.785 32.2269 269.697 32.0067 269.585 31.8086C269.474 31.6105 269.327 31.4487 269.144 31.3233C268.961 31.1978 268.74 31.1482 268.481 31.1744C268.248 31.198 267.977 31.3039 267.669 31.4921C267.374 31.679 267.064 31.9132 266.739 32.1947C266.427 32.4749 266.118 32.7875 265.813 33.1325C265.52 33.4762 265.254 33.8172 265.013 34.1557C264.773 34.4941 264.583 34.8143 264.443 35.1164C264.316 35.4171 264.262 35.6581 264.281 35.8395ZM272.194 30.8184C272.187 30.7407 272.173 30.6046 272.153 30.4103C272.145 30.2017 272.13 29.9873 272.108 29.7671C272.085 29.5469 272.065 29.3461 272.047 29.1647C272.04 28.9691 272.033 28.8324 272.025 28.7547C272.1 28.59 272.188 28.4306 272.291 28.2763C272.404 28.1077 272.524 27.991 272.648 27.9261C272.784 27.8469 272.931 27.8188 273.091 27.842C273.263 27.8638 273.445 27.9763 273.635 28.1795L273.651 28.335L273.677 28.5876C273.67 28.6537 273.66 28.8118 273.646 29.0618C273.631 29.2989 273.612 29.5626 273.589 29.8529C273.566 30.1431 273.541 30.4139 273.514 30.6653C273.499 30.9024 273.494 31.0534 273.501 31.1181C273.526 31.3643 273.583 31.6726 273.673 32.043C273.761 32.4005 273.871 32.7755 274.003 33.1679C274.147 33.559 274.31 33.9482 274.494 34.3353C274.69 34.7212 274.908 35.0656 275.148 35.3685C275.386 35.6585 275.639 35.8946 275.906 36.077C276.187 36.2581 276.495 36.3316 276.832 36.2975C277.246 36.2556 277.598 36.1088 277.887 35.8571C278.188 35.6041 278.438 35.2909 278.636 34.9176C278.834 34.5442 278.981 34.1301 279.079 33.6752C279.19 33.219 279.269 32.7661 279.315 32.3165C279.36 31.8539 279.381 31.4134 279.378 30.9949C279.374 30.5764 279.357 30.2117 279.326 29.9008C279.294 29.5899 279.239 29.301 279.16 29.0342C279.092 28.7531 279.012 28.4798 278.92 28.2143C278.827 27.9488 278.742 27.6892 278.664 27.4353C278.598 27.1672 278.551 26.8971 278.523 26.6251C278.498 26.3789 278.565 26.1955 278.723 26.0748C278.894 25.9529 279.089 25.8807 279.31 25.8585C279.582 25.8309 279.81 25.8929 279.996 26.0442C280.18 26.1827 280.33 26.3704 280.445 26.6073C280.574 26.843 280.667 27.1214 280.726 27.4427C280.796 27.7497 280.847 28.0586 280.879 28.3695C280.91 28.6804 280.934 28.9791 280.95 29.2654C280.964 29.5387 280.98 29.7596 280.997 29.928C281.042 30.3685 281.06 30.8705 281.051 31.4341C281.043 31.9977 280.985 32.586 280.876 33.199C280.78 33.7977 280.637 34.3944 280.449 34.9894C280.273 35.5829 280.034 36.1241 279.73 36.6129C279.438 37.0875 279.078 37.4837 278.653 37.8016C278.24 38.1182 277.755 38.3047 277.198 38.361C276.615 38.42 276.089 38.3357 275.621 38.1082C275.152 37.8678 274.739 37.5365 274.382 37.1146C274.037 36.6783 273.731 36.1792 273.465 35.6172C273.199 35.0552 272.978 34.4887 272.802 33.9175C272.64 33.345 272.505 32.7893 272.398 32.2505C272.303 31.6974 272.235 31.22 272.194 30.8184ZM290.674 28.5566C290.652 28.3364 290.677 28.131 290.749 27.9405C290.834 27.7486 291 27.6403 291.246 27.6154C291.259 27.6141 291.279 27.6186 291.306 27.6289C291.332 27.6263 291.358 27.6237 291.384 27.621C291.41 27.6184 291.436 27.6158 291.462 27.6132C291.503 27.6352 291.581 27.6927 291.695 27.7859C291.822 27.8777 291.901 27.9482 291.933 27.9974C291.979 28.0712 292.074 28.2318 292.217 28.4791C292.373 28.7251 292.552 29.0145 292.756 29.3472C292.972 29.6657 293.19 30.0101 293.41 30.3804C293.643 30.7364 293.861 31.0808 294.065 31.4135C294.281 31.745 294.461 32.0343 294.604 32.2816C294.758 32.5147 294.865 32.6674 294.925 32.7399C294.942 32.7775 295.008 32.8493 295.124 32.9554C295.251 33.0473 295.341 33.1035 295.396 33.1242C295.481 32.9323 295.557 32.6498 295.624 32.2766C295.691 31.9034 295.755 31.4978 295.815 31.0598C295.887 30.6075 295.959 30.1488 296.029 29.6836C296.099 29.2054 296.186 28.7778 296.292 28.4006C296.41 28.0092 296.547 27.6877 296.705 27.4362C296.861 27.1717 297.056 27.0277 297.29 27.0041C297.626 26.97 297.957 27.0675 298.281 27.2964C298.618 27.5241 298.944 27.8314 299.258 28.2185C299.585 28.6042 299.897 29.0437 300.196 29.537C300.506 30.016 300.797 30.497 301.068 30.98C301.351 31.4487 301.611 31.8869 301.849 32.2948C302.098 32.6884 302.332 32.9984 302.552 33.2249C302.702 33.1573 302.818 33.0147 302.901 32.7969C302.984 32.5792 303.04 32.3576 303.069 32.1321C303.11 31.8924 303.134 31.674 303.14 31.4771C303.145 31.2672 303.151 31.1292 303.157 31.0631C303.156 30.9193 303.153 30.6971 303.149 30.3965C303.143 30.083 303.134 29.7306 303.121 29.3393C303.12 28.9467 303.112 28.5419 303.096 28.1247C303.08 27.7075 303.065 27.3033 303.052 26.912C303.051 26.5195 303.042 26.1736 303.025 25.8743C303.02 25.5607 303.01 25.3392 302.997 25.2097C303.023 25.207 303.087 25.194 303.19 25.1706C303.291 25.1342 303.361 25.114 303.399 25.1101C303.581 25.0917 303.745 25.0948 303.891 25.1192C304.038 25.1437 304.161 25.2686 304.263 25.4939C304.272 25.5846 304.288 25.7465 304.312 25.9797C304.348 26.2116 304.38 26.4635 304.408 26.7356C304.447 26.9934 304.479 27.2453 304.504 27.4915C304.541 27.7234 304.563 27.8846 304.573 27.9753C304.594 28.1826 304.626 28.5065 304.671 28.9469C304.727 29.3731 304.769 29.8531 304.797 30.3869C304.838 30.9193 304.854 31.4674 304.845 32.031C304.836 32.5816 304.783 33.0973 304.688 33.5781C304.604 34.0446 304.461 34.4387 304.258 34.7602C304.053 35.0688 303.776 35.2408 303.427 35.2762C303.025 35.3168 302.639 35.2576 302.27 35.0987C301.901 34.9397 301.544 34.7141 301.2 34.4216C300.87 34.1279 300.549 33.8005 300.237 33.4393C299.925 33.0653 299.631 32.6892 299.358 32.3112C299.095 31.9189 298.849 31.5513 298.618 31.2082C298.398 30.8508 298.204 30.5498 298.036 30.3051C297.956 30.5488 297.888 30.8501 297.833 31.2091C297.79 31.5667 297.738 31.958 297.677 32.3831C297.614 32.7952 297.538 33.215 297.451 33.6427C297.362 34.0574 297.25 34.4417 297.116 34.7955C296.993 35.1351 296.832 35.4197 296.633 35.6492C296.446 35.8775 296.217 36.0054 295.945 36.0329C295.816 36.046 295.7 36.0642 295.597 36.0877C295.494 36.0982 295.396 36.1015 295.304 36.0977C295.211 36.081 295.122 36.0442 295.038 35.9873C294.953 35.9303 294.872 35.8339 294.792 35.698L290.752 28.9414C290.751 28.9284 290.739 28.8772 290.717 28.7879C290.693 28.6855 290.679 28.6085 290.674 28.5566ZM314.638 32.0023C314.18 32.389 313.783 32.7366 313.448 33.0454C313.125 33.3399 312.804 33.5948 312.485 33.8102C312.167 34.0257 311.818 34.1984 311.438 34.3284C311.072 34.4571 310.61 34.5496 310.053 34.6059C308.848 34.7278 307.922 34.5008 307.275 33.925C306.626 33.3362 306.238 32.407 306.11 31.1375C306.06 30.6452 306.073 30.1269 306.149 29.5827C306.224 29.0384 306.359 28.4948 306.553 27.9517C306.758 27.3943 307.012 26.8648 307.315 26.363C307.616 25.8483 307.969 25.3873 308.373 24.9801C308.776 24.5728 309.214 24.2406 309.685 23.9835C310.168 23.7122 310.688 23.5484 311.245 23.492C312.187 23.4884 312.943 23.6475 313.512 23.9695C314.08 24.2785 314.529 24.7107 314.86 25.2662C315.19 25.8086 315.442 26.4309 315.618 27.1329C315.793 27.822 315.944 28.5396 316.071 29.2857C316.212 30.0306 316.366 30.7741 316.533 31.5163C316.699 32.2585 316.957 32.9326 317.307 33.5385C317.181 33.9831 317.05 34.2974 316.911 34.4815C316.787 34.6773 316.628 34.7261 316.435 34.6278C316.242 34.5296 315.999 34.2662 315.707 33.8377C315.428 33.4078 315.072 32.7961 314.638 32.0023ZM307.765 31.0093C307.84 31.7477 308.031 32.278 308.338 32.6003C308.658 32.9083 309.173 33.0263 309.886 32.9542C310.417 32.9005 310.913 32.7587 311.374 32.5288C311.847 32.2847 312.248 31.9824 312.578 31.6218C312.907 31.2483 313.157 30.8172 313.33 30.3286C313.504 29.8399 313.561 29.3106 313.504 28.7406C313.48 28.5074 313.454 28.1829 313.425 27.767C313.394 27.3382 313.326 26.9198 313.219 26.5118C313.113 26.1038 312.953 25.76 312.742 25.4804C312.529 25.1878 312.241 25.0599 311.879 25.0966C311.205 25.1647 310.601 25.4025 310.066 25.8099C309.53 26.2044 309.082 26.6882 308.721 27.2613C308.36 27.8343 308.096 28.4565 307.928 29.1279C307.759 29.7862 307.705 30.4134 307.765 31.0093ZM317.941 27.5851C317.907 27.2482 317.967 27.0001 318.121 26.8405C318.274 26.668 318.538 26.5628 318.914 26.5248L319.108 26.5051C319.168 26.7085 319.237 26.9436 319.317 27.2104C319.396 27.4772 319.502 27.7478 319.634 28.0224C319.767 28.2969 319.917 28.55 320.084 28.7817C320.25 29.0005 320.444 29.1707 320.666 29.2922C320.633 28.8375 320.699 28.3923 320.864 27.9568C321.041 27.507 321.269 27.1045 321.547 26.7492C321.837 26.3796 322.159 26.0657 322.512 25.8075C322.877 25.535 323.243 25.3409 323.611 25.2251L324.039 25.1819C324.661 25.119 325.206 25.2078 325.675 25.4482C326.143 25.6757 326.543 26.0018 326.874 26.4264C327.216 26.8367 327.494 27.319 327.707 27.8733C327.92 28.4275 328.096 28.9987 328.234 29.5868C328.383 30.1606 328.493 30.7253 328.562 31.2811C328.643 31.8226 328.703 32.2876 328.743 32.6763L327.324 32.8197C327.168 32.0503 326.995 31.3152 326.807 30.6145C326.739 30.3335 326.657 30.0407 326.561 29.7364C326.463 29.4191 326.362 29.1283 326.257 28.8641C326.15 28.587 326.04 28.3364 325.925 28.1124C325.81 27.8754 325.685 27.6786 325.552 27.522C325.494 27.4754 325.416 27.4114 325.316 27.3299C325.229 27.2471 325.136 27.1649 325.036 27.0834C324.936 27.0019 324.844 26.9327 324.76 26.8757C324.676 26.8188 324.627 26.791 324.614 26.7923C324.215 26.728 323.886 26.8398 323.627 27.1277C323.367 27.4027 323.148 27.7651 322.971 28.2149C322.794 28.6646 322.662 29.1688 322.575 29.7273C322.5 30.2845 322.443 30.8203 322.404 31.3347C322.363 31.8362 322.342 32.2767 322.341 32.6563C322.339 33.023 322.335 33.2458 322.33 33.3249C322.03 33.5908 321.733 33.6929 321.438 33.631C321.143 33.5562 320.85 33.3764 320.559 33.0917C320.282 32.8057 320.016 32.44 319.761 31.9946C319.52 31.5479 319.289 31.0739 319.068 30.5728C318.846 30.0587 318.636 29.5433 318.44 29.0265C318.257 28.5085 318.091 28.028 317.941 27.5851ZM328.437 23.2451C328.433 23.2063 328.436 23.1732 328.446 23.146C328.444 23.1201 328.447 23.087 328.456 23.0469C328.501 22.9769 328.57 22.8848 328.663 22.7707C328.757 22.6565 328.816 22.5982 328.842 22.5956L332.748 22.2005C332.733 22.058 332.691 21.8332 332.621 21.5263C332.55 21.2193 332.477 20.8799 332.4 20.5082C332.336 20.1351 332.29 19.7471 332.263 19.3442C332.234 18.9283 332.248 18.5539 332.306 18.2208C332.376 17.8735 332.504 17.5858 332.69 17.3575C332.888 17.115 333.181 16.9741 333.57 16.9348C333.702 18.2432 333.899 19.2834 334.16 20.0553C334.422 20.8272 334.723 21.4118 335.064 21.8092C335.418 22.2052 335.796 22.4484 336.198 22.5386C336.6 22.6289 337.001 22.6472 337.401 22.5936C337.813 22.5258 338.208 22.4204 338.586 22.2774C338.964 22.1345 339.3 22.0285 339.594 21.9595C339.901 21.8892 340.151 21.8967 340.343 21.982C340.533 22.0543 340.647 22.2718 340.683 22.6346C340.711 22.9066 340.666 23.1075 340.548 23.2372C340.443 23.3656 340.219 23.4799 339.876 23.58C339.774 23.6034 339.601 23.647 339.359 23.7108C339.129 23.7603 338.866 23.8131 338.57 23.8691C338.275 23.9252 337.961 23.9897 337.628 24.0626C337.294 24.1226 336.979 24.1806 336.684 24.2366C336.388 24.2927 336.118 24.3396 335.873 24.3775C335.627 24.4024 335.446 24.4207 335.329 24.4325C335.336 24.4973 335.341 24.6081 335.343 24.7648C335.346 24.9216 335.35 25.0259 335.355 25.0777C335.413 25.6477 335.56 26.1956 335.796 26.7213C336.031 27.2341 336.28 27.7456 336.541 28.2558C336.814 28.7647 337.069 29.2755 337.304 29.7883C337.539 30.3011 337.686 30.8425 337.743 31.4125C337.754 31.5162 337.752 31.6276 337.738 31.7468C337.735 31.8517 337.706 31.9528 337.651 32.0501C337.607 32.133 337.528 32.1999 337.416 32.2505C337.317 32.3128 337.168 32.3214 336.967 32.2763C336.461 32.1965 336.064 31.9553 335.775 31.5527C335.498 31.1488 335.272 30.6613 335.097 30.0901C334.92 29.506 334.779 28.8855 334.673 28.2288C334.567 27.572 334.44 26.9632 334.292 26.4024C334.155 25.8273 333.976 25.3481 333.754 24.9649C333.53 24.5686 333.213 24.3455 332.803 24.2954L328.966 23.8198C328.914 23.825 328.831 23.7811 328.717 23.6879C328.601 23.5818 328.528 23.5041 328.497 23.4549C328.481 23.4303 328.472 23.3986 328.468 23.3597C328.452 23.3351 328.442 23.2969 328.437 23.2451ZM349.89 21.0752C349.886 21.0363 349.889 21.0033 349.899 20.9761C349.897 20.9502 349.9 20.9171 349.909 20.877C349.954 20.8069 350.023 20.7149 350.116 20.6008C350.21 20.4866 350.269 20.4283 350.295 20.4256L354.201 20.0306C354.186 19.8881 354.144 19.6633 354.074 19.3564C354.003 19.0494 353.93 18.71 353.853 18.3382C353.789 17.9652 353.743 17.5772 353.716 17.1743C353.687 16.7584 353.701 16.384 353.759 16.0509C353.829 15.7036 353.957 15.4159 354.143 15.1876C354.341 14.9451 354.634 14.8042 355.023 14.7649C355.155 16.0733 355.352 17.1135 355.613 17.8854C355.875 18.6573 356.176 19.2419 356.517 19.6393C356.871 20.0353 357.249 20.2785 357.651 20.3687C358.053 20.4589 358.454 20.4773 358.854 20.4237C359.266 20.3559 359.661 20.2505 360.039 20.1075C360.417 19.9646 360.753 19.8586 361.047 19.7896C361.354 19.7193 361.604 19.7268 361.796 19.8121C361.986 19.8844 362.1 20.1019 362.136 20.4647C362.164 20.7367 362.119 20.9376 362.001 21.0673C361.896 21.1957 361.672 21.3099 361.329 21.4101C361.227 21.4335 361.054 21.4771 360.812 21.5409C360.582 21.5904 360.319 21.6432 360.023 21.6992C359.728 21.7553 359.414 21.8197 359.081 21.8927C358.747 21.9527 358.432 22.0107 358.137 22.0667C357.841 22.1228 357.571 22.1697 357.326 22.2076C357.08 22.2325 356.899 22.2508 356.782 22.2626C356.789 22.3274 356.794 22.4381 356.796 22.5949C356.799 22.7517 356.803 22.856 356.808 22.9078C356.866 23.4778 357.013 24.0257 357.249 24.5514C357.485 25.0642 357.733 25.5757 357.994 26.0859C358.267 26.5948 358.522 27.1056 358.757 27.6184C358.992 28.1312 359.139 28.6726 359.196 29.2426C359.207 29.3463 359.205 29.4577 359.191 29.5769C359.188 29.6818 359.159 29.7829 359.104 29.8802C359.06 29.9631 358.981 30.0299 358.869 30.0806C358.77 30.1429 358.621 30.1515 358.42 30.1064C357.914 30.0266 357.517 29.7854 357.228 29.3828C356.951 28.9789 356.725 28.4914 356.55 27.9202C356.373 27.3361 356.232 26.7156 356.126 26.0589C356.02 25.4021 355.893 24.7933 355.745 24.2325C355.608 23.6574 355.429 23.1782 355.207 22.7949C354.984 22.3987 354.666 22.1756 354.256 22.1255L350.419 21.6499C350.367 21.6551 350.284 21.6112 350.17 21.518C350.054 21.4119 349.981 21.3342 349.95 21.285C349.934 21.2604 349.925 21.2287 349.921 21.1898C349.905 21.1652 349.895 21.127 349.89 21.0752ZM363.404 25.6172C363.322 24.814 363.435 24.0501 363.741 23.3255C364.046 22.588 364.478 21.9423 365.037 21.3884C365.608 20.8203 366.261 20.355 366.996 19.9927C367.745 19.6291 368.514 19.4073 369.304 19.3274C369.745 19.2829 370.148 19.386 370.514 19.637C370.892 19.8866 371.219 20.2069 371.494 20.5979C371.768 20.9759 371.986 21.3857 372.149 21.8273C372.324 22.2676 372.429 22.6562 372.463 22.993C372.536 23.7185 372.433 24.4422 372.152 25.1642C371.871 25.8732 371.478 26.5215 370.975 27.109C370.47 27.6835 369.885 28.1681 369.218 28.5627C368.551 28.9573 367.868 29.19 367.168 29.2608C366.546 29.3237 366.011 29.2731 365.563 29.1091C365.113 28.9321 364.741 28.6818 364.446 28.3582C364.151 28.0217 363.914 27.6203 363.736 27.1541C363.569 26.6736 363.459 26.1613 363.404 25.6172ZM365.075 25.6445C365.109 25.9813 365.165 26.2766 365.243 26.5305C365.333 26.7701 365.458 26.9733 365.619 27.1403C365.793 27.3059 366.008 27.4281 366.264 27.5069C366.52 27.5727 366.829 27.5872 367.192 27.5505C367.671 27.502 368.137 27.324 368.59 27.0164C369.042 26.6959 369.435 26.3158 369.771 25.8762C370.117 25.4224 370.382 24.9375 370.566 24.4217C370.749 23.9058 370.817 23.4147 370.77 22.9483C370.749 22.741 370.707 22.5163 370.643 22.2741C370.579 22.0319 370.491 21.8117 370.38 21.6136C370.268 21.4155 370.121 21.2537 369.938 21.1282C369.755 21.0028 369.534 20.9531 369.275 20.9794C369.042 21.0029 368.771 21.1088 368.463 21.2971C368.168 21.484 367.858 21.7182 367.533 21.9997C367.221 22.2799 366.913 22.5925 366.607 22.9375C366.315 23.2811 366.048 23.6222 365.808 23.9606C365.567 24.2991 365.377 24.6193 365.237 24.9213C365.111 25.2221 365.057 25.4631 365.075 25.6445ZM375.766 27.5078C375.712 26.9766 375.772 26.4667 375.945 25.9781C376.131 25.4881 376.33 24.9968 376.542 24.5043C376.765 23.9974 376.968 23.4796 377.15 22.9508C377.331 22.409 377.391 21.8402 377.331 21.2442C377.277 20.7131 377.152 20.2481 376.954 19.8493C376.757 19.4504 376.512 19.1022 376.221 18.8045C375.942 18.5056 375.626 18.2364 375.275 17.9971C374.924 17.7579 374.56 17.5264 374.184 17.3026C373.82 17.0647 373.455 16.8202 373.089 16.5693C372.736 16.317 372.406 16.0233 372.097 15.6881C372.123 15.5546 372.165 15.4522 372.223 15.3809C372.294 15.3082 372.38 15.2537 372.481 15.2173C372.582 15.1809 372.685 15.1575 372.788 15.147C372.892 15.1365 372.989 15.1267 373.08 15.1175C373.909 15.0337 374.669 15.1727 375.36 15.5347C376.051 15.8967 376.651 16.3923 377.159 17.0213C377.679 17.6362 378.096 18.3269 378.409 19.0936C378.734 19.846 378.932 20.5784 379.004 21.2909C379.033 21.5759 379.044 21.9413 379.037 22.387C379.028 22.8197 378.991 23.2946 378.926 23.8116C378.872 24.3144 378.786 24.8269 378.669 25.3492C378.55 25.8585 378.395 26.3258 378.202 26.7509C378.01 27.1761 377.771 27.534 377.486 27.8245C377.214 28.1138 376.891 28.2774 376.515 28.3154C376.282 28.339 376.104 28.2653 375.982 28.0944C375.859 27.9106 375.787 27.715 375.766 27.5078Z" fill="#FF6C02"/>
</svg>
