<svg width="261" height="119" viewBox="0 0 261 119" fill="none" xmlns="http://www.w3.org/2000/svg">
<path d="M19.6448 2.31233C19.9311 1.84002 20.546 1.68921 21.0183 1.97547L28.715 6.64043C29.1873 6.92669 29.3381 7.54164 29.0518 8.01394C28.7655 8.48624 28.1506 8.63706 27.6783 8.35079L20.8368 4.20416L16.6902 11.0456C16.404 11.5179 15.789 11.6687 15.3167 11.3825C14.8444 11.0962 14.6936 10.4813 14.9799 10.009L19.6448 2.31233ZM134.994 91.2751L135.048 92.2737C92.9012 94.5622 67.0594 85.0548 50.2121 68.4286C33.4137 51.8506 25.7283 28.3471 19.5288 3.06885L20.5 2.83065L21.4712 2.59246C27.668 27.8595 35.2548 50.8575 51.6169 67.005C67.9302 83.1043 93.1372 92.5464 134.94 90.2766L134.994 91.2751Z" fill="#FF6C02"/>
<path d="M143.138 89.4625C143.129 89.2283 143.144 88.9085 143.181 88.5032C143.218 88.0979 143.28 87.6591 143.366 87.1868C143.466 86.701 143.591 86.2078 143.741 85.7071C143.905 85.2058 144.097 84.7557 144.317 84.3566C144.536 83.9446 144.791 83.6094 145.081 83.351C145.37 83.0797 145.704 82.937 146.081 82.923C146.094 82.9225 146.107 82.9285 146.121 82.9411C146.134 82.9406 146.153 82.9398 146.179 82.9389C146.206 82.9509 146.239 82.9562 146.278 82.9548C146.317 82.9663 146.383 82.9899 146.476 83.0256C146.581 83.0608 146.674 83.1029 146.754 83.1521C146.847 83.1877 146.926 83.2304 146.993 83.28C147.073 83.3161 147.12 83.347 147.134 83.3725C147.134 83.3855 147.141 83.4048 147.155 83.4303C147.156 83.4564 147.157 83.4824 147.158 83.5084C147.172 83.5209 147.179 83.5337 147.179 83.5467C147.196 84.0021 147.076 84.4561 146.819 84.9087C146.563 85.3612 146.28 85.8278 145.972 86.3083C145.677 86.7883 145.403 87.2936 145.149 87.8242C144.895 88.3549 144.779 88.9194 144.802 89.518C144.831 90.3247 144.969 91.0363 145.213 91.6526C145.457 92.256 145.771 92.8176 146.155 93.3376C146.552 93.844 147.013 94.3286 147.538 94.7911C148.077 95.2533 148.655 95.7399 149.273 96.2512C149.274 96.2772 149.282 96.316 149.297 96.3676C149.312 96.4061 149.319 96.4384 149.32 96.4644C149.329 96.7117 149.245 96.8907 149.067 97.0016C148.888 97.0994 148.688 97.1524 148.467 97.1607C147.881 97.1824 147.343 97.0721 146.852 96.8297C146.373 96.5739 145.937 96.2383 145.544 95.8229C145.164 95.407 144.82 94.9312 144.514 94.3953C144.22 93.846 143.971 93.2819 143.767 92.7031C143.576 92.1239 143.424 91.5562 143.313 91.0001C143.213 90.4304 143.155 89.9179 143.138 89.4625ZM153.839 96.0425C154.042 95.8917 154.282 95.7003 154.56 95.4685C154.851 95.2232 155.141 94.9648 155.431 94.6935C155.72 94.4221 155.99 94.1385 156.239 93.8425C156.489 93.5466 156.681 93.2659 156.814 93.0003C156.96 92.7213 157.029 92.4646 157.02 92.2304C157.011 91.9962 156.887 91.8054 156.647 91.6579C156.231 91.6734 155.776 91.7098 155.283 91.7672C154.789 91.8116 154.295 91.843 153.801 91.8614C153.306 91.8667 152.823 91.8391 152.352 91.7784C151.893 91.7172 151.478 91.5893 151.106 91.3947C150.734 91.2 150.43 90.9181 150.195 90.549C149.972 90.1664 149.85 89.6758 149.828 89.0772C149.802 88.3746 149.908 87.7387 150.148 87.1695C150.4 86.5868 150.739 86.0726 151.165 85.6268C151.591 85.1679 152.072 84.7657 152.606 84.4201C153.153 84.061 153.702 83.754 154.253 83.499C154.594 83.5775 154.913 83.7286 155.208 83.9521C155.503 84.1757 155.759 84.4268 155.978 84.7053C155.898 84.995 155.724 85.2229 155.456 85.3892C155.202 85.555 154.901 85.703 154.554 85.8332C154.22 85.9628 153.867 86.0997 153.495 86.2439C153.122 86.388 152.784 86.5765 152.48 86.8093C152.188 87.0286 151.945 87.3178 151.75 87.6768C151.554 88.0228 151.467 88.4756 151.487 89.0351C151.503 89.4515 151.618 89.7534 151.834 89.9409C152.049 90.1283 152.328 90.2548 152.669 90.3203C153.009 90.3728 153.394 90.3846 153.823 90.3556C154.252 90.3136 154.686 90.2649 155.127 90.2094C155.581 90.1535 156.023 90.1175 156.452 90.1016C156.881 90.0726 157.267 90.1104 157.61 90.215C157.952 90.3065 158.225 90.4723 158.429 90.7122C158.647 90.9517 158.764 91.3122 158.782 91.7936C158.79 92.0018 158.728 92.2712 158.597 92.6018C158.479 92.932 158.31 93.29 158.09 93.6761C157.882 94.0486 157.629 94.4229 157.33 94.7988C157.045 95.1743 156.738 95.5179 156.411 95.8297C156.096 96.1281 155.773 96.3811 155.442 96.5889C155.124 96.7831 154.821 96.8855 154.535 96.8962C154.262 96.9063 154.076 96.8155 153.978 96.6237C153.893 96.4314 153.846 96.2377 153.839 96.0425ZM159.599 92.7405C159.569 91.9338 159.73 91.1786 160.082 90.475C160.433 89.7583 160.905 89.1414 161.499 88.6242C162.104 88.0936 162.786 87.6708 163.543 87.3561C164.313 87.0408 165.095 86.8684 165.888 86.839C166.331 86.8225 166.727 86.9512 167.076 87.2249C167.437 87.4981 167.743 87.8385 167.993 88.2462C168.242 88.6409 168.434 89.0637 168.568 89.5148C168.715 89.9654 168.795 90.3598 168.807 90.6981C168.834 91.4268 168.685 92.1425 168.359 92.8452C168.033 93.5348 167.6 94.1568 167.06 94.7111C166.52 95.2523 165.905 95.6986 165.214 96.05C164.524 96.4014 163.827 96.5902 163.124 96.6163C162.5 96.6395 161.969 96.5549 161.532 96.3627C161.094 96.1574 160.739 95.884 160.466 95.5423C160.192 95.1877 159.981 94.772 159.833 94.2954C159.697 93.8053 159.62 93.287 159.599 92.7405ZM161.266 92.8741C161.278 93.2124 161.315 93.5107 161.377 93.769C161.451 94.0138 161.563 94.2246 161.713 94.4015C161.876 94.5779 162.083 94.7135 162.334 94.8084C162.585 94.8903 162.892 94.9245 163.257 94.911C163.738 94.8931 164.215 94.7451 164.686 94.467C165.158 94.1758 165.575 93.8216 165.937 93.4042C166.312 92.9733 166.607 92.5063 166.823 92.0032C167.039 91.5 167.138 91.0142 167.121 90.5458C167.113 90.3376 167.085 90.1106 167.037 89.8648C166.989 89.6191 166.915 89.3938 166.816 89.189C166.717 88.9842 166.581 88.8133 166.406 88.6765C166.232 88.5396 166.014 88.476 165.754 88.4857C165.52 88.4944 165.243 88.5829 164.924 88.7511C164.617 88.9188 164.293 89.1328 163.951 89.3931C163.622 89.6529 163.294 89.9452 162.967 90.2701C162.653 90.5944 162.366 90.9178 162.104 91.2403C161.842 91.5627 161.632 91.8702 161.474 92.1627C161.328 92.4548 161.259 92.6919 161.266 92.8741ZM169.045 88.1485C169.033 87.8232 169.075 87.5675 169.173 87.3815C169.283 87.195 169.52 87.095 169.885 87.0814C169.924 87.08 169.995 87.0838 170.1 87.093C170.217 87.0886 170.289 87.086 170.315 87.085C170.421 87.485 170.528 87.924 170.637 88.4021C170.759 88.8666 170.894 89.3372 171.042 89.8138C171.19 90.2904 171.35 90.76 171.524 91.2227C171.71 91.6848 171.928 92.1002 172.176 92.4689C172.401 92.2129 172.559 91.9139 172.651 91.5717C172.742 91.2295 172.808 90.8883 172.847 90.5481C172.886 90.1948 172.92 89.8613 172.947 89.5476C172.987 89.2204 173.074 88.9435 173.209 88.717C173.344 88.4775 173.546 88.3006 173.815 88.1863C174.097 88.0716 174.488 88.0571 174.986 88.1428C175.533 88.1225 175.972 88.2104 176.305 88.4065C176.638 88.5896 176.927 88.833 177.173 89.1366C177.431 89.4267 177.678 89.7433 177.912 90.0864C178.159 90.416 178.463 90.7109 178.824 90.9711C178.896 90.799 178.986 90.5872 179.094 90.3356C179.201 90.0711 179.334 89.799 179.493 89.5195C179.665 89.2264 179.843 88.9397 180.028 88.6592C180.226 88.3652 180.431 88.1035 180.644 87.8741C180.857 87.6316 181.077 87.4345 181.306 87.2827C181.535 87.1178 181.759 87.0313 181.981 87.0231C182.514 87.0033 182.982 87.1553 183.385 87.4791C183.788 87.7899 184.135 88.1939 184.427 88.6912C184.732 89.1751 184.987 89.7259 185.192 90.3437C185.397 90.9485 185.562 91.5352 185.687 92.1039C185.813 92.6725 185.904 93.1968 185.961 93.6768C186.03 94.1433 186.069 94.4807 186.077 94.6888C186.083 94.858 186.049 94.9896 185.974 95.0836C185.899 95.1775 185.804 95.2527 185.689 95.3091C185.574 95.3525 185.444 95.3834 185.302 95.4017C185.172 95.4195 185.049 95.4306 184.932 95.435C184.906 95.4359 184.867 95.4374 184.814 95.4393C184.762 95.4283 184.703 95.4174 184.637 95.4068C184.585 95.3957 184.513 95.3789 184.421 95.3562L182.935 89.5675C182.934 89.5285 182.879 89.4589 182.771 89.3586C182.663 89.2454 182.582 89.1767 182.529 89.1526C182.49 89.1541 182.457 89.1488 182.43 89.1368C182.404 89.1377 182.385 89.1384 182.372 89.1389C182.358 89.1264 182.345 89.1204 182.332 89.1209C182.059 89.131 181.803 89.2513 181.564 89.4817C181.338 89.7116 181.127 89.9995 180.931 90.3456C180.736 90.6916 180.555 91.0762 180.388 91.4993C180.221 91.9225 180.074 92.3449 179.946 92.7666C179.818 93.1753 179.702 93.5575 179.598 93.9131C179.506 94.2553 179.432 94.5187 179.373 94.7033C179.322 94.7312 179.219 94.7611 179.064 94.7929C178.908 94.8118 178.804 94.8221 178.752 94.8241C178.388 94.8376 178.104 94.7244 177.899 94.4844C177.694 94.2314 177.52 93.9187 177.376 93.5461C177.245 93.1731 177.125 92.7671 177.018 92.3281C176.923 91.8756 176.803 91.4631 176.659 91.0906C176.528 90.7176 176.347 90.4116 176.117 90.1726C175.899 89.9201 175.595 89.8011 175.205 89.8156C175.061 89.8209 174.93 89.9691 174.811 90.2602C174.691 90.5513 174.588 90.92 174.5 91.3662C174.412 91.7995 174.332 92.2715 174.259 92.7824C174.187 93.2802 174.126 93.7515 174.077 94.1964C174.041 94.6277 174.016 94.9935 174.001 95.2937C173.986 95.5939 173.978 95.7441 173.978 95.7441C173.954 95.7841 173.904 95.8315 173.827 95.8865C173.751 95.9284 173.668 95.9771 173.579 96.0325C173.503 96.0875 173.42 96.1297 173.329 96.1591C173.252 96.188 173.194 96.2032 173.155 96.2046C172.791 96.2182 172.433 96.0686 172.083 95.7558C171.732 95.4301 171.404 95.0123 171.098 94.5024C170.805 93.9791 170.53 93.403 170.272 92.7741C170.027 92.1447 169.815 91.5272 169.636 90.9214C169.457 90.3157 169.313 89.7673 169.204 89.2762C169.107 88.7846 169.054 88.4087 169.045 88.1485ZM186.714 90.2676C186.688 89.565 186.746 88.8592 186.889 88.1503C187.032 87.4414 187.275 86.8004 187.619 86.2273C187.976 85.6538 188.44 85.1805 189.013 84.8074C189.598 84.4339 190.314 84.2314 191.16 84.2C191.641 84.1821 192.067 84.2575 192.438 84.4261C192.809 84.5818 193.123 84.7981 193.381 85.0752C193.639 85.3523 193.834 85.6838 193.965 86.0698C194.109 86.4423 194.189 86.8368 194.205 87.2531C194.229 87.9168 194.097 88.5666 193.808 89.2028C193.532 89.8385 193.143 90.4067 192.64 90.9075C192.15 91.3948 191.578 91.7743 190.923 92.0462C190.268 92.3051 189.594 92.3822 188.899 92.2777C188.926 92.6546 189.061 92.9558 189.304 93.1813C189.56 93.3933 189.859 93.5516 190.201 93.6561C190.544 93.7607 190.898 93.8257 191.264 93.8512C191.629 93.8637 191.955 93.8646 192.241 93.854C192.541 93.8429 192.819 93.8065 193.078 93.7448C193.336 93.683 193.594 93.6148 193.852 93.5401C194.11 93.4654 194.368 93.3972 194.626 93.3354C194.897 93.2733 195.183 93.2366 195.482 93.2255C195.599 93.2211 195.716 93.2233 195.834 93.232C195.951 93.2406 196.063 93.269 196.169 93.3172C196.275 93.3524 196.362 93.4208 196.431 93.5225C196.499 93.6112 196.536 93.7271 196.542 93.8702C196.551 94.1174 196.468 94.329 196.292 94.5049C196.115 94.6678 195.886 94.8131 195.604 94.9409C195.335 95.0681 195.033 95.1706 194.697 95.2482C194.361 95.3128 194.031 95.3707 193.707 95.4218C193.395 95.4594 193.103 95.4833 192.83 95.4934C192.57 95.5161 192.375 95.5299 192.245 95.5347C191.412 95.5656 190.659 95.4633 189.986 95.2277C189.312 94.9791 188.739 94.6291 188.266 94.1775C187.793 93.713 187.42 93.1535 187.148 92.4991C186.889 91.8312 186.744 91.0874 186.714 90.2676ZM188.735 88.9221C188.752 89.3775 188.823 89.7072 188.948 89.911C189.086 90.1144 189.396 90.2071 189.877 90.1892C190.215 90.1767 190.545 90.1058 190.866 89.9766C191.186 89.8344 191.473 89.6479 191.725 89.417C191.99 89.1856 192.195 88.9174 192.34 88.6124C192.485 88.3073 192.551 87.9791 192.538 87.6278C192.53 87.4326 192.503 87.2316 192.457 87.0249C192.423 86.8177 192.351 86.6314 192.24 86.4661C192.13 86.2878 191.988 86.1498 191.815 86.052C191.654 85.9407 191.444 85.8898 191.184 85.8995C190.793 85.914 190.439 86.0184 190.12 86.2126C189.814 86.3934 189.556 86.631 189.345 86.9255C189.134 87.2069 188.977 87.5255 188.873 87.8812C188.768 88.2238 188.722 88.5708 188.735 88.9221ZM197.011 85.4681C197.01 85.429 197.015 85.3962 197.027 85.3697C197.026 85.3437 197.032 85.3109 197.043 85.2714C197.093 85.2044 197.168 85.117 197.268 85.009C197.368 84.901 197.431 84.8466 197.457 84.8456L201.38 84.6999C201.375 84.5568 201.347 84.3298 201.297 84.019C201.246 83.7081 201.194 83.3648 201.141 82.9889C201.101 82.6125 201.08 82.2224 201.078 81.8185C201.076 81.4017 201.114 81.0289 201.193 80.7002C201.284 80.358 201.43 80.079 201.631 79.8631C201.844 79.6336 202.145 79.5117 202.536 79.4972C202.585 80.8114 202.715 81.862 202.926 82.6489C203.138 83.4359 203.402 84.0385 203.717 84.4568C204.045 84.8746 204.407 85.1413 204.802 85.2569C205.197 85.3725 205.596 85.4163 205.999 85.3883C206.414 85.3468 206.815 85.2668 207.202 85.1482C207.588 85.0296 207.931 84.9452 208.228 84.8951C208.539 84.8445 208.788 84.8678 208.974 84.9651C209.159 85.0495 209.259 85.2738 209.272 85.6381C209.282 85.9114 209.225 86.109 209.099 86.2309C208.986 86.3524 208.755 86.4521 208.406 86.5302C208.303 86.5471 208.128 86.5797 207.882 86.6279C207.649 86.6626 207.383 86.6985 207.085 86.7357C206.787 86.7728 206.469 86.8172 206.132 86.8688C205.795 86.9074 205.477 86.9452 205.179 86.9824C204.88 87.0195 204.608 87.0492 204.361 87.0714C204.114 87.0806 203.932 87.0873 203.815 87.0917C203.817 87.1567 203.815 87.2676 203.807 87.4242C203.8 87.5808 203.798 87.6852 203.8 87.7372C203.821 88.3097 203.933 88.8659 204.135 89.4056C204.337 89.9323 204.552 90.4585 204.78 90.9843C205.021 91.5096 205.243 92.0356 205.445 92.5623C205.647 93.089 205.758 93.6386 205.779 94.2112C205.783 94.3152 205.774 94.4263 205.753 94.5444C205.744 94.649 205.708 94.748 205.647 94.8415C205.597 94.9215 205.515 94.9832 205.399 95.0266C205.297 95.0825 205.147 95.0816 204.95 95.0238C204.45 94.912 204.069 94.646 203.806 94.2258C203.556 93.8051 203.361 93.3042 203.222 92.723C203.083 92.1288 202.982 91.5006 202.918 90.8385C202.854 90.1763 202.766 89.5607 202.654 88.9915C202.554 88.4089 202.406 87.9193 202.208 87.5227C202.011 87.1131 201.709 86.8702 201.302 86.7941L197.503 86.0752C197.451 86.0772 197.371 86.028 197.263 85.9278C197.155 85.8145 197.086 85.7324 197.058 85.6813C197.044 85.6558 197.037 85.6235 197.035 85.5844C197.021 85.5589 197.013 85.5201 197.011 85.4681ZM210.904 87.4733C210.901 87.3953 210.897 87.2717 210.89 87.1025C210.896 86.9199 210.896 86.7309 210.889 86.5358C210.894 86.3401 210.894 86.1512 210.887 85.969C210.893 85.7864 210.895 85.656 210.892 85.5779C211.028 85.3644 211.204 85.1885 211.42 85.0502C211.649 84.9114 211.88 84.7986 212.111 84.7118C212.176 85.413 212.314 86.1571 212.526 86.944C212.738 87.731 212.963 88.524 213.201 89.323C213.438 90.109 213.65 90.8894 213.835 91.6643C214.033 92.4388 214.145 93.1643 214.17 93.8409C214.192 94.4264 213.903 94.7303 213.305 94.7525C212.94 94.7661 212.629 94.6278 212.371 94.3377C212.112 94.0476 211.897 93.6778 211.724 93.2281C211.563 92.765 211.427 92.2554 211.315 91.6993C211.203 91.1301 211.117 90.573 211.058 90.028C211.011 89.4825 210.973 88.9822 210.943 88.5273C210.926 88.0719 210.913 87.7206 210.904 87.4733ZM210.905 80.144C211.157 80.2389 211.371 80.4004 211.549 80.6283C211.727 80.8562 211.806 81.0683 211.787 81.2644C211.781 81.4471 211.643 81.5825 211.373 81.6707C211.102 81.7459 210.643 81.6848 209.998 81.4872C209.985 81.1359 210.038 80.8277 210.159 80.5627C210.292 80.2971 210.541 80.1576 210.905 80.144ZM214.228 86.4704C214.216 86.1451 214.259 85.8894 214.356 85.7034C214.467 85.5169 214.704 85.4168 215.068 85.4033C215.107 85.4018 215.179 85.4057 215.284 85.4148C215.401 85.4105 215.472 85.4078 215.498 85.4069C215.604 85.8069 215.712 86.2459 215.821 86.7239C215.942 87.1885 216.077 87.6591 216.225 88.1357C216.373 88.6123 216.534 89.0819 216.708 89.5445C216.894 90.0067 217.111 90.4221 217.36 90.7907C217.585 90.5348 217.743 90.2357 217.835 89.8936C217.926 89.5514 217.992 89.2102 218.031 88.8699C218.07 88.5167 218.103 88.1832 218.131 87.8695C218.171 87.5422 218.258 87.2654 218.393 87.0388C218.527 86.7993 218.729 86.6224 218.999 86.5082C219.281 86.3935 219.672 86.379 220.17 86.4647C220.716 86.4444 221.156 86.5323 221.489 86.7284C221.822 86.9115 222.111 87.1548 222.357 87.4584C222.615 87.7485 222.861 88.0651 223.096 88.4082C223.342 88.7378 223.646 89.0327 224.008 89.2929C224.08 89.1209 224.17 88.9091 224.277 88.6575C224.385 88.3929 224.518 88.1208 224.677 87.8413C224.849 87.5483 225.027 87.2615 225.212 86.981C225.41 86.687 225.615 86.4253 225.828 86.1959C226.04 85.9535 226.261 85.7564 226.49 85.6045C226.718 85.4397 226.943 85.3532 227.164 85.3449C227.698 85.3251 228.166 85.4771 228.569 85.8009C228.971 86.1117 229.319 86.5158 229.611 87.0131C229.915 87.4969 230.17 88.0477 230.376 88.6655C230.581 89.2703 230.746 89.8571 230.871 90.4257C230.996 90.9944 231.088 91.5187 231.144 91.9987C231.214 92.4652 231.253 92.8025 231.26 93.0107C231.267 93.1799 231.232 93.3114 231.158 93.4054C231.083 93.4994 230.988 93.5746 230.873 93.631C230.757 93.6744 230.628 93.7052 230.485 93.7235C230.356 93.7414 230.232 93.7525 230.115 93.7568C230.089 93.7578 230.05 93.7593 229.998 93.7612C229.946 93.7501 229.887 93.7393 229.821 93.7287C229.769 93.7176 229.696 93.7007 229.604 93.6781L228.119 87.8894C228.117 87.8504 228.063 87.7807 227.955 87.6805C227.846 87.5673 227.766 87.4986 227.712 87.4745C227.673 87.4759 227.641 87.4707 227.614 87.4586C227.588 87.4596 227.569 87.4603 227.556 87.4608C227.542 87.4483 227.529 87.4422 227.516 87.4427C227.243 87.4529 226.986 87.5731 226.747 87.8035C226.521 88.0334 226.311 88.3214 226.115 88.6674C225.919 89.0135 225.738 89.3981 225.572 89.8212C225.405 90.2443 225.258 90.6668 225.13 91.0885C225.002 91.4971 224.886 91.8793 224.782 92.235C224.69 92.5772 224.615 92.8405 224.557 93.0251C224.506 93.0531 224.403 93.083 224.248 93.1148C224.092 93.1336 223.988 93.144 223.936 93.1459C223.572 93.1594 223.287 93.0462 223.083 92.8062C222.878 92.5533 222.704 92.2405 222.56 91.868C222.428 91.495 222.309 91.089 222.202 90.65C222.107 90.1975 221.987 89.7849 221.843 89.4124C221.712 89.0394 221.531 88.7334 221.301 88.4944C221.083 88.2419 220.779 88.1229 220.388 88.1374C220.245 88.1427 220.114 88.2909 219.994 88.582C219.875 88.8731 219.771 89.2418 219.684 89.6881C219.596 90.1213 219.515 90.5934 219.443 91.1042C219.37 91.6021 219.31 92.0734 219.261 92.5182C219.225 92.9495 219.199 93.3153 219.185 93.6156C219.17 93.9158 219.162 94.0659 219.162 94.0659C219.138 94.1059 219.087 94.1534 219.011 94.2083C218.934 94.2503 218.852 94.299 218.762 94.3544C218.686 94.4093 218.603 94.4515 218.513 94.4809C218.436 94.5098 218.378 94.525 218.339 94.5265C217.975 94.54 217.617 94.3904 217.267 94.0777C216.916 93.7519 216.588 93.3341 216.282 92.8243C215.989 92.301 215.714 91.7249 215.456 91.096C215.211 90.4666 214.999 89.849 214.82 89.2433C214.641 88.6375 214.497 88.0891 214.388 87.598C214.291 87.1065 214.238 86.7306 214.228 86.4704ZM231.897 88.5895C231.871 87.8868 231.93 87.1811 232.073 86.4721C232.216 85.7632 232.459 85.1222 232.803 84.5492C233.159 83.9757 233.624 83.5024 234.196 83.1293C234.782 82.7557 235.497 82.5533 236.343 82.5219C236.825 82.504 237.251 82.5793 237.622 82.748C237.993 82.9036 238.307 83.12 238.565 83.397C238.823 83.6741 239.017 84.0057 239.149 84.3917C239.293 84.7642 239.373 85.1586 239.388 85.575C239.413 86.2386 239.281 86.8885 238.992 87.5247C238.716 88.1603 238.326 88.7286 237.824 89.2293C237.334 89.7166 236.761 90.0962 236.107 90.3681C235.452 90.6269 234.777 90.7041 234.083 90.5996C234.11 90.9765 234.245 91.2776 234.488 91.5032C234.743 91.7152 235.042 91.8735 235.385 91.978C235.728 92.0825 236.082 92.1476 236.448 92.1731C236.813 92.1856 237.139 92.1865 237.425 92.1759C237.724 92.1647 238.003 92.1283 238.261 92.0666C238.52 92.0049 238.778 91.9367 239.035 91.862C239.293 91.7872 239.551 91.719 239.81 91.6573C240.081 91.5951 240.366 91.5585 240.666 91.5473C240.783 91.543 240.9 91.5451 241.018 91.5538C241.135 91.5625 241.247 91.5909 241.353 91.6391C241.459 91.6742 241.546 91.7427 241.615 91.8443C241.683 91.933 241.72 92.0489 241.725 92.192C241.735 92.4393 241.651 92.6508 241.475 92.8268C241.299 92.9897 241.07 93.135 240.788 93.2627C240.519 93.39 240.217 93.4924 239.881 93.57C239.544 93.6347 239.214 93.6925 238.89 93.7436C238.579 93.7813 238.287 93.8051 238.014 93.8153C237.754 93.838 237.559 93.8517 237.429 93.8566C236.596 93.8875 235.843 93.7852 235.17 93.5496C234.496 93.301 233.923 92.9509 233.45 92.4994C232.977 92.0349 232.604 91.4754 232.332 90.821C232.073 90.1531 231.928 89.4092 231.897 88.5895ZM233.919 87.244C233.936 87.6994 234.007 88.029 234.132 88.2329C234.27 88.4362 234.579 88.529 235.061 88.5111C235.399 88.4985 235.729 88.4276 236.05 88.2984C236.37 88.1562 236.656 87.9697 236.908 87.7388C237.173 87.5075 237.378 87.2393 237.523 86.9342C237.668 86.6291 237.734 86.3009 237.721 85.9496C237.714 85.7544 237.687 85.5535 237.64 85.3467C237.607 85.1395 237.535 84.9533 237.424 84.788C237.313 84.6097 237.171 84.4716 236.998 84.3738C236.838 84.2625 236.627 84.2117 236.367 84.2214C235.977 84.2358 235.622 84.3402 235.304 84.5345C234.998 84.7152 234.74 84.9528 234.529 85.2473C234.318 85.5288 234.16 85.8473 234.056 86.203C233.952 86.5457 233.906 86.8927 233.919 87.244ZM246.705 92.5934C246.908 92.4426 247.148 92.2512 247.426 92.0194C247.717 91.7741 248.007 91.5157 248.296 91.2444C248.586 90.973 248.855 90.6894 249.105 90.3935C249.355 90.0975 249.546 89.8168 249.68 89.5512C249.826 89.2722 249.894 89.0156 249.886 88.7814C249.877 88.5471 249.753 88.3563 249.513 88.2089C249.096 88.2243 248.642 88.2608 248.149 88.3182C247.655 88.3626 247.161 88.3939 246.667 88.4123C246.172 88.4176 245.689 88.39 245.217 88.3293C244.759 88.2682 244.344 88.1402 243.972 87.9456C243.6 87.7509 243.296 87.469 243.061 87.0999C242.838 86.7173 242.716 86.2267 242.693 85.6282C242.667 84.9255 242.774 84.2896 243.013 83.7204C243.265 83.1378 243.605 82.6235 244.031 82.1777C244.457 81.7189 244.937 81.3166 245.472 80.971C246.019 80.612 246.567 80.3049 247.118 80.0499C247.46 80.1284 247.778 80.2795 248.073 80.5031C248.368 80.7267 248.625 80.9777 248.844 81.2562C248.763 81.5459 248.59 81.7738 248.322 81.9401C248.068 82.1059 247.767 82.2539 247.42 82.3841C247.086 82.5138 246.733 82.6507 246.36 82.7948C245.988 82.9389 245.649 83.1274 245.345 83.3602C245.054 83.5795 244.81 83.8687 244.615 84.2277C244.42 84.5738 244.332 85.0265 244.353 85.5861C244.369 86.0024 244.484 86.3043 244.699 86.4918C244.915 86.6792 245.193 86.8057 245.534 86.8712C245.875 86.9237 246.26 86.9355 246.689 86.9065C247.117 86.8645 247.552 86.8158 247.993 86.7604C248.447 86.7044 248.889 86.6685 249.318 86.6525C249.747 86.6236 250.133 86.6613 250.475 86.7659C250.817 86.8574 251.091 87.0232 251.295 87.2631C251.512 87.5026 251.63 87.8631 251.648 88.3445C251.656 88.5527 251.594 88.8221 251.463 89.1528C251.345 89.4829 251.176 89.841 250.956 90.227C250.748 90.5996 250.495 90.9738 250.196 91.3497C249.91 91.7252 249.604 92.0688 249.277 92.3807C248.962 92.679 248.639 92.932 248.308 93.1398C247.99 93.334 247.687 93.4365 247.401 93.4471C247.128 93.4573 246.942 93.3664 246.843 93.1746C246.758 92.9824 246.712 92.7886 246.705 92.5934ZM254.65 92.3374C254.63 91.804 254.722 91.2989 254.926 90.8223C255.143 90.3451 255.372 89.8675 255.615 89.3894C255.871 88.8978 256.106 88.394 256.321 87.8778C256.536 87.3486 256.633 86.7848 256.61 86.1862C256.591 85.6527 256.495 85.1807 256.323 84.7701C256.152 84.3595 255.93 83.9964 255.657 83.6808C255.398 83.3647 255.101 83.0761 254.765 82.8149C254.43 82.5537 254.082 82.2995 253.721 82.0524C253.372 81.7917 253.023 81.5245 252.674 81.2508C252.339 80.9766 252.027 80.6624 251.74 80.3082C251.775 80.1767 251.823 80.0771 251.886 80.0097C251.961 79.9417 252.051 79.8928 252.154 79.8629C252.257 79.833 252.361 79.8161 252.465 79.8123C252.569 79.8084 252.666 79.8048 252.757 79.8014C253.59 79.7705 254.34 79.9576 255.006 80.3628C255.673 80.7681 256.24 81.3008 256.708 81.961C257.188 82.6076 257.559 83.3235 257.823 84.1085C258.099 84.8801 258.251 85.6237 258.277 86.3393C258.288 86.6256 258.276 86.9909 258.24 87.4352C258.204 87.8665 258.137 88.3381 258.038 88.8499C257.953 89.3482 257.835 89.8543 257.684 90.368C257.533 90.8687 257.348 91.3251 257.129 91.7372C256.91 92.1493 256.649 92.4912 256.346 92.7631C256.057 93.0344 255.723 93.1771 255.346 93.1911C255.112 93.1998 254.939 93.115 254.828 92.9367C254.717 92.7454 254.658 92.5456 254.65 92.3374Z" fill="#FF6C02"/>
</svg>
