<svg width="169" height="130" viewBox="0 0 169 130" fill="none" xmlns="http://www.w3.org/2000/svg">
<path d="M21.6984 127.598C22.0285 128.041 22.6551 128.132 23.0978 127.802L30.3125 122.421C30.7552 122.091 30.8464 121.464 30.5163 121.022C30.1861 120.579 29.5595 120.488 29.1168 120.818L22.7038 125.601L17.9212 119.188C17.591 118.745 16.9645 118.654 16.5218 118.984C16.079 119.314 15.9878 119.94 16.3179 120.383L21.6984 127.598ZM128 28L127.958 27.0009C85.786 28.7581 60.9732 40.6959 45.7952 58.8588C30.6612 76.9689 25.2613 101.1 21.5104 126.856L22.5 127L23.4896 127.144C27.2387 101.4 32.5888 77.7811 47.3298 60.1412C62.0268 42.5541 86.214 30.742 128.042 28.9991L128 28Z" fill="#FF6C02"/>
<path d="M135.055 22.9683C135.02 22.6446 135.045 22.3867 135.13 22.1944C135.227 22.0007 135.457 21.8846 135.819 21.846C135.858 21.8419 135.93 21.8408 136.035 21.8427C136.151 21.8303 136.223 21.8228 136.249 21.82C136.382 22.2118 136.519 22.6424 136.661 23.1118C136.814 23.5669 136.981 24.0271 137.161 24.4924C137.342 24.9577 137.534 25.4151 137.739 25.8647C137.957 26.313 138.203 26.7124 138.476 27.0631C138.683 26.7923 138.82 26.4831 138.888 26.1354C138.956 25.7878 138.997 25.4429 139.013 25.1007C139.028 24.7456 139.038 24.4106 139.044 24.0958C139.061 23.7665 139.13 23.4843 139.249 23.2491C139.366 23.0008 139.555 22.8105 139.816 22.678C140.09 22.5441 140.479 22.5028 140.982 22.5541C141.525 22.4962 141.97 22.5537 142.316 22.7264C142.66 22.8862 142.966 23.1091 143.232 23.3951C143.509 23.6667 143.777 23.9656 144.034 24.2918C144.303 24.6036 144.627 24.8769 145.005 25.1117C145.065 24.9351 145.14 24.7176 145.23 24.4592C145.319 24.1878 145.434 23.9073 145.573 23.6175C145.724 23.3133 145.882 23.015 146.047 22.7224C146.224 22.4155 146.411 22.1403 146.608 21.8968C146.803 21.6403 147.01 21.4285 147.228 21.2613C147.444 21.0811 147.662 20.9793 147.883 20.9559C148.413 20.8995 148.891 21.0189 149.315 21.3143C149.738 21.5966 150.112 21.9759 150.438 22.4519C150.775 22.9136 151.067 23.4456 151.315 24.0478C151.561 24.6371 151.766 25.2111 151.93 25.7697C152.094 26.3284 152.221 26.8453 152.311 27.3202C152.412 27.7808 152.474 28.1147 152.496 28.3219C152.514 28.4902 152.489 28.6238 152.421 28.7227C152.353 28.8216 152.263 28.9031 152.152 28.9673C152.04 29.0185 151.913 29.0582 151.772 29.0863C151.644 29.113 151.522 29.1326 151.405 29.145C151.379 29.1477 151.34 29.1519 151.289 29.1574C151.235 29.1499 151.176 29.1432 151.11 29.1371C151.056 29.1297 150.983 29.1178 150.89 29.1016L149.01 23.4287C149.006 23.3899 148.946 23.3242 148.832 23.2316C148.716 23.1261 148.63 23.0631 148.576 23.0428C148.537 23.0469 148.504 23.0439 148.477 23.0337C148.451 23.0364 148.431 23.0385 148.418 23.0399C148.404 23.0283 148.391 23.0232 148.378 23.0246C148.106 23.0535 147.858 23.1911 147.636 23.4374C147.426 23.6823 147.236 23.984 147.064 24.3427C146.893 24.7014 146.739 25.0975 146.601 25.5311C146.464 25.9647 146.346 26.3963 146.248 26.8258C146.148 27.2423 146.059 27.6316 145.979 27.9935C145.912 28.3412 145.855 28.6091 145.81 28.7973C145.761 28.8287 145.66 28.8656 145.507 28.908C145.353 28.9375 145.25 28.955 145.198 28.9605C144.836 28.999 144.544 28.9056 144.324 28.6803C144.102 28.442 143.907 28.142 143.737 27.7802C143.581 27.4171 143.434 27.0203 143.296 26.5897C143.171 26.1448 143.023 25.7415 142.853 25.3798C142.697 25.0167 142.496 24.7238 142.249 24.5012C142.015 24.2643 141.703 24.1665 141.315 24.2078C141.172 24.223 141.051 24.3798 140.952 24.6785C140.853 24.9771 140.775 25.352 140.718 25.8033C140.66 26.2416 140.613 26.718 140.576 27.2326C140.537 27.7343 140.509 28.2086 140.491 28.6558C140.485 29.0885 140.485 29.4552 140.491 29.7558C140.496 30.0563 140.499 30.2066 140.499 30.2066C140.477 30.2482 140.43 30.299 140.358 30.3591C140.285 30.4062 140.205 30.4604 140.12 30.5219C140.048 30.5819 139.968 30.6297 139.88 30.6653C139.805 30.6994 139.748 30.7186 139.709 30.7227C139.347 30.7612 138.98 30.6366 138.609 30.3487C138.237 30.0478 137.88 29.6536 137.541 29.166C137.212 28.6641 136.898 28.1083 136.597 27.4986C136.31 26.8876 136.056 26.286 135.836 25.694C135.616 25.102 135.434 24.5648 135.291 24.0824C135.161 23.5986 135.082 23.2273 135.055 22.9683ZM152.828 23.8673C152.753 23.1681 152.763 22.46 152.857 21.7429C152.951 21.0258 153.15 20.3696 153.453 19.7743C153.769 19.1776 154.2 18.6735 154.746 18.2619C155.304 17.849 156.004 17.5978 156.846 17.5083C157.325 17.4573 157.755 17.5032 158.137 17.6459C158.517 17.7757 158.846 17.9699 159.122 18.2286C159.398 18.4873 159.615 18.8047 159.773 19.1807C159.943 19.5424 160.049 19.9304 160.093 20.3448C160.164 21.0051 160.076 21.6625 159.832 22.3171C159.6 22.9703 159.251 23.5639 158.784 24.0981C158.328 24.6179 157.784 25.0359 157.149 25.3522C156.514 25.6554 155.846 25.7788 155.146 25.7223C155.199 26.0964 155.354 26.3876 155.612 26.5959C155.882 26.7899 156.191 26.9272 156.54 27.0079C156.889 27.0887 157.247 27.1292 157.613 27.1295C157.979 27.1168 158.304 27.0953 158.589 27.065C158.886 27.0334 159.162 26.9779 159.416 26.8985C159.669 26.8192 159.922 26.7334 160.174 26.6411C160.426 26.5488 160.679 26.463 160.932 26.3837C161.199 26.303 161.481 26.2468 161.778 26.2151C161.895 26.2027 162.012 26.1968 162.13 26.1974C162.248 26.1979 162.361 26.2186 162.471 26.2594C162.578 26.2872 162.67 26.3494 162.746 26.4461C162.82 26.5299 162.865 26.643 162.88 26.7854C162.906 27.0314 162.838 27.2482 162.674 27.4358C162.51 27.6105 162.291 27.7712 162.018 27.918C161.759 28.0635 161.464 28.1865 161.135 28.287C160.803 28.3746 160.478 28.455 160.158 28.5283C159.85 28.5873 159.561 28.6312 159.289 28.6601C159.031 28.7006 158.838 28.7277 158.708 28.7415C157.879 28.8296 157.121 28.7793 156.433 28.5906C155.744 28.3889 155.148 28.0791 154.645 27.6612C154.141 27.2303 153.731 26.6978 153.415 26.0636C153.11 25.4151 152.914 24.683 152.828 23.8673ZM154.752 22.3859C154.8 22.8391 154.894 23.1631 155.032 23.3578C155.184 23.5512 155.499 23.6225 155.978 23.5715C156.315 23.5357 156.639 23.4423 156.95 23.2914C157.26 23.1275 157.533 22.9217 157.768 22.674C158.017 22.425 158.203 22.1433 158.326 21.829C158.45 21.5147 158.493 21.1827 158.456 20.8331C158.436 20.6389 158.395 20.4403 158.334 20.2373C158.286 20.0329 158.201 19.852 158.08 19.6947C157.957 19.5244 157.806 19.3965 157.627 19.3108C157.459 19.2108 157.245 19.1746 156.986 19.2021C156.598 19.2434 156.252 19.3719 155.947 19.5876C155.654 19.789 155.413 20.0438 155.223 20.352C155.032 20.6474 154.897 20.976 154.817 21.338C154.737 21.687 154.715 22.0363 154.752 22.3859ZM165.555 26.2652C165.723 26.2473 165.891 26.2819 166.057 26.369C166.236 26.4547 166.354 26.5731 166.409 26.7244C166.476 26.8613 166.454 27.0273 166.344 27.2223C166.234 27.4173 165.973 27.6153 165.563 27.8161C165.208 27.8015 164.946 27.7442 164.778 27.6442C164.622 27.5298 164.524 27.4093 164.485 27.2826C164.457 27.1415 164.474 27.0021 164.538 26.8644C164.614 26.7123 164.705 26.5848 164.812 26.4818C164.93 26.3644 165.059 26.2852 165.199 26.2442C165.337 26.1902 165.456 26.1972 165.555 26.2652ZM162.727 13.5241C163.042 13.1633 163.306 13.0631 163.52 13.2237C163.733 13.3844 163.912 13.7123 164.057 14.2077C164.214 14.7016 164.337 15.304 164.425 16.0147C164.513 16.7125 164.596 17.4304 164.674 18.1685C164.766 18.9051 164.853 19.6029 164.936 20.2619C165.032 20.9195 165.146 21.4376 165.278 21.8164C165.299 22.0107 165.304 22.1804 165.293 22.3255C165.282 22.4707 165.249 22.5921 165.194 22.6896C165.139 22.7871 165.043 22.8693 164.906 22.9363C164.768 22.9903 164.582 23.0296 164.349 23.0544C164.31 23.0586 164.269 23.0433 164.226 23.0086C164.184 22.9739 164.133 22.8679 164.075 22.6908C164.015 22.5007 163.946 22.2135 163.865 21.8292C163.784 21.432 163.686 20.8793 163.571 20.1713C163.47 19.462 163.342 18.572 163.189 17.5015C163.049 16.4295 162.895 15.1038 162.727 13.5241Z" fill="#FF6C02"/>
</svg>
